<?xml version="1.0" encoding="UTF-8"?>
<svg version="1.1" xmlns="http://www.w3.org/2000/svg" width="129" height="129">
<path d="M0 0 C6.27 0 12.54 0 19 0 C19.99 3.465 19.99 3.465 21 7 C22.51931653 8.64519223 22.51931653 8.64519223 24.5 9.5625 C25.57121094 10.15611328 25.57121094 10.15611328 26.6640625 10.76171875 C27.43492188 11.17035156 28.20578125 11.57898437 29 12 C37.93340666 17.19417944 46.58494111 22.27887346 53.6875 29.875 C56.54460017 32.8377324 57.64470626 33.89762723 61.6875 35.0625 C62.780625 35.041875 63.87375 35.02125 65 35 C66.134375 35.020625 67.26875 35.04125 68.4375 35.0625 C69.283125 35.041875 70.12875 35.02125 71 35 C72.96818336 40.82254243 74.40214229 45.83381819 74 52 C73.05125 52.433125 72.1025 52.86625 71.125 53.3125 C67.79958063 54.79302201 67.79958063 54.79302201 66 58 C65.30922679 61.51896508 64.74963917 65.02910181 64.23242188 68.57617188 C63.49090332 73.24241292 62.30507332 76.81323417 60 81 C58.94579051 83.56236684 57.95463872 86.14269154 56.96484375 88.73046875 C56 91 56 91 54 94 C53.48382205 98.74883712 54.4450899 101.06118027 57 105 C57 105.99 57 106.98 57 108 C54.94692089 109.74452386 52.96700813 111.24509298 50.75 112.75 C50.16347656 113.17410156 49.57695313 113.59820312 48.97265625 114.03515625 C44.63261403 117.02929773 44.63261403 117.02929773 41.72265625 116.89453125 C40 116 40 116 37.6875 113.9375 C34.22218132 111.439247 32.19063006 111.61903363 28 112 C27.38793701 112.16346924 26.77587402 112.32693848 26.14526367 112.49536133 C21.32703752 113.6287713 16.24068557 113.48318053 11.3125 113.6875 C10.16587891 113.74744141 9.01925781 113.80738281 7.83789062 113.86914062 C1.90064335 114.11723396 -3.38708175 114.0607842 -9.12695312 112.4362793 C-12.32264178 111.69192377 -14.87932272 112.14334349 -18 113 C-18.70125 113.70125 -19.4025 114.4025 -20.125 115.125 C-20.74375 115.74375 -21.3625 116.3625 -22 117 C-26.5330988 116.74074132 -29.27058173 114.62594399 -32.8125 111.9375 C-33.78832031 111.20402344 -34.76414062 110.47054687 -35.76953125 109.71484375 C-36.50558594 109.14894531 -37.24164063 108.58304687 -38 108 C-37.45276317 104.62537285 -36.9451 102.91765 -35 100 C-34.12257221 94.73543326 -36.09725871 91.66756658 -38.6953125 87.30078125 C-40.56425039 84.00495964 -41.80111032 80.58280904 -43 77 C-43.33902344 76.06800781 -43.67804687 75.13601562 -44.02734375 74.17578125 C-45.35430375 69.84317692 -45.74997871 65.51615175 -46.2421875 61.0234375 C-47.12022647 57.52033355 -48.22838718 56.248667 -51 54 C-53.13309192 52.76487921 -53.13309192 52.76487921 -55 52 C-55.40214229 45.83381819 -53.96818336 40.82254243 -52 35 C-50.78763672 35.08701172 -50.78763672 35.08701172 -49.55078125 35.17578125 C-42.96692773 35.64944735 -42.96692773 35.64944735 -37.25 32.9375 C-36.13625 31.4834375 -36.13625 31.4834375 -35 30 C-30.65713952 25.82819311 -26.16997465 22.25630111 -20.95703125 19.23828125 C-18.8677967 17.9745685 -18.8677967 17.9745685 -16.65234375 16.0546875 C-13.80898032 13.85202304 -10.98985796 12.36459944 -7.75 10.8125 C-4.1350309 9.2664937 -4.1350309 9.2664937 -1 7 C-0.67 4.69 -0.34 2.38 0 0 Z " fill="#038B46" transform="translate(55,6)"/>
<path d="M0 0 C5.75 0.75 5.75 0.75 8 3 C8.70211894 4.65204456 9.36971413 6.31923769 10 8 C10.495 8.99 10.495 8.99 11 10 C8.03 10 5.06 10 2 10 C1.505 9.01 1.505 9.01 1 8 C-2.45275062 6.67983065 -4.52442938 7.02356294 -7.8125 8.4375 C-8.864375 8.953125 -9.91625 9.46875 -11 10 C-10.11248047 9.96519531 -10.11248047 9.96519531 -9.20703125 9.9296875 C-4.70465218 9.82685992 -1.03667676 9.74421004 3 12 C4 13 5 14 6 15 C8.28978567 16.42532726 10.63213883 17.70437785 13 19 C13 19.33 13 19.66 13 20 C10.69 20 8.38 20 6 20 C6 22.31 6 24.62 6 27 C5.34 27 4.68 27 4 27 C3.54625 25.9275 3.0925 24.855 2.625 23.75 C1.49911463 21.11937683 0.32079794 18.53999604 -1 16 C-0.38125 16.33 0.2375 16.66 0.875 17 C2.91018344 18.14193235 2.91018344 18.14193235 5 18 C0.83724931 14.44011711 0.83724931 14.44011711 -4 12 C-6.35551428 12.29443928 -8.00185874 13.00092937 -10.125 14.0625 C-12 15 -12 15 -14 15 C-14.33 16.98 -14.66 18.96 -15 21 C-14.34 21 -13.68 21 -13 21 C-13 23.31 -13 25.62 -13 28 C-13.66 28 -14.32 28 -15 28 C-17.15384835 24.4676887 -18.02538344 22.49920756 -17.8125 18.3125 C-17 15 -17 15 -15 12 C-15.66 11.67 -16.32 11.34 -17 11 C-17.226875 11.53625 -17.45375 12.0725 -17.6875 12.625 C-19 15 -19 15 -21.625 17.3125 C-25.34048582 21.59959903 -24.5476002 27.05301405 -24.36328125 32.4140625 C-23.9290422 36.70042213 -23.28031397 39.36838886 -21 43 C-20.01 43.66 -19.02 44.32 -18 45 C-18 45.66 -18 46.32 -18 47 C-14.36614965 47.9375002 -10.70421677 48.67474785 -7.0234375 49.40234375 C-5 50 -5 50 -3 52 C-0.45286596 51.99077298 -0.45286596 51.99077298 2 51 C3.10836423 49.11683841 3.10836423 49.11683841 4 47 C6.60319658 44.64872567 7.42129926 44 11 44 C11 43.34 11 42.68 11 42 C11.66 42 12.32 42 13 42 C13.33 42.66 13.66 43.32 14 44 C13.97679687 43.443125 13.95359375 42.88625 13.9296875 42.3125 C13.83522108 38.31792007 13.90520714 34.88608148 15.125 31.0625 C16.54592345 26.17807563 15.28063065 21.80729043 14 17 C14.99 17 15.98 17 17 17 C17 14.36 17 11.72 17 9 C20.08364682 9.33039073 20.97847097 9.97657135 23.125 12.3125 C25.89684114 16.2854723 27.26914723 18.84899434 27.125 23.75 C27.10695313 24.54921875 27.08890625 25.3484375 27.0703125 26.171875 C27.04710938 26.77515625 27.02390625 27.3784375 27 28 C25.515 28.495 25.515 28.495 24 29 C23.34 27.35 22.68 25.7 22 24 C21.34 24 20.68 24 20 24 C20.495 27.465 20.495 27.465 21 31 C20.34 31 19.68 31 19 31 C19.495 31.99 19.495 31.99 20 33 C20.13415472 35.6723621 20.04318541 38.32250488 20 41 C20.99 40.01 21.98 39.02 23 38 C22.01 37.505 22.01 37.505 21 37 C21.66 36.34 22.32 35.68 23 35 C23.70710678 33.35008418 24.37943989 31.68437744 25 30 C25.99 30 26.98 30 28 30 C28.125 32.375 28.125 32.375 28 35 C27.01 35.99 27.01 35.99 26 37 C26.66 37.33 27.32 37.66 28 38 C28.625 40.5625 28.625 40.5625 29 43 C29.61875 42.34 30.2375 41.68 30.875 41 C33 39 33 39 35 39 C34.62462978 44.00493624 32.90366335 46.99208688 30.1953125 51.046875 C28.82111396 53.1233239 28.82111396 53.1233239 27.9375 56.25 C26.78181231 59.64001722 25.87638341 60.84271244 23 63 C11.74069612 68.34473064 -1.85270241 72.23321521 -14.25 69 C-20.21176304 66.82935809 -27.86745316 63.40826682 -31.3125 57.90234375 C-32 56 -32 56 -32 54 C-32.79006843 52.80361067 -33.63052116 51.63998337 -34.5 50.5 C-37 47.22222222 -37 47.22222222 -37 45 C-37.66 45 -38.32 45 -39 45 C-39.33 43.02 -39.66 41.04 -40 39 C-37.53199953 40.15173355 -35.95216435 41.04783565 -34 43 C-33.67 41.35 -33.34 39.7 -33 38 C-32.34 38 -31.68 38 -31 38 C-31 36.35 -31 34.7 -31 33 C-30.67 33.66 -30.34 34.32 -30 35 C-28.515 34.505 -28.515 34.505 -27 34 C-27.0928125 33.16597656 -27.185625 32.33195312 -27.28125 31.47265625 C-27.86682508 22.34395906 -27.86682508 22.34395906 -25.21875 18.23828125 C-23 15.875 -23 15.875 -20.75 13.8046875 C-18.65192708 12.06002332 -18.65192708 12.06002332 -19 9 C-18.175 8.87625 -17.35 8.7525 -16.5 8.625 C-12.60227933 7.92897845 -8.83260331 6.99119051 -5 6 C-5 5.01 -5 4.02 -5 3 C-6.98 3 -8.96 3 -11 3 C-11 2.67 -11 2.34 -11 2 C-8.69 2 -6.38 2 -4 2 C-4 2.66 -4 3.32 -4 4 C-2.68 3.34 -1.36 2.68 0 2 C0 1.34 0 0.68 0 0 Z " fill="#088642" transform="translate(67,39)"/>
<path d="M0 0 C6.27 0 12.54 0 19 0 C19.99 3.465 19.99 3.465 21 7 C22.51931653 8.64519223 22.51931653 8.64519223 24.5 9.5625 C25.57121094 10.15611328 25.57121094 10.15611328 26.6640625 10.76171875 C27.43492188 11.17035156 28.20578125 11.57898437 29 12 C37.93340666 17.19417944 46.58494111 22.27887346 53.6875 29.875 C56.54460017 32.8377324 57.64470626 33.89762723 61.6875 35.0625 C62.780625 35.041875 63.87375 35.02125 65 35 C66.134375 35.020625 67.26875 35.04125 68.4375 35.0625 C69.283125 35.041875 70.12875 35.02125 71 35 C72.96818336 40.82254243 74.40214229 45.83381819 74 52 C73.05125 52.433125 72.1025 52.86625 71.125 53.3125 C67.79958063 54.79302201 67.79958063 54.79302201 66 58 C65.30922679 61.51896508 64.74963917 65.02910181 64.23242188 68.57617188 C63.49090332 73.24241292 62.30507332 76.81323417 60 81 C58.94579051 83.56236684 57.95463872 86.14269154 56.96484375 88.73046875 C56 91 56 91 54 94 C53.48382205 98.74883712 54.4450899 101.06118027 57 105 C57 105.99 57 106.98 57 108 C54.94692089 109.74452386 52.96700813 111.24509298 50.75 112.75 C50.16347656 113.17410156 49.57695313 113.59820312 48.97265625 114.03515625 C44.63261403 117.02929773 44.63261403 117.02929773 41.72265625 116.89453125 C40 116 40 116 37.6875 113.9375 C34.22218132 111.439247 32.19063006 111.61903363 28 112 C27.38793701 112.16346924 26.77587402 112.32693848 26.14526367 112.49536133 C21.32703752 113.6287713 16.24068557 113.48318053 11.3125 113.6875 C10.16587891 113.74744141 9.01925781 113.80738281 7.83789062 113.86914062 C1.90064335 114.11723396 -3.38708175 114.0607842 -9.12695312 112.4362793 C-12.32264178 111.69192377 -14.87932272 112.14334349 -18 113 C-18.70125 113.70125 -19.4025 114.4025 -20.125 115.125 C-20.74375 115.74375 -21.3625 116.3625 -22 117 C-26.5330988 116.74074132 -29.27058173 114.62594399 -32.8125 111.9375 C-33.78832031 111.20402344 -34.76414062 110.47054687 -35.76953125 109.71484375 C-36.50558594 109.14894531 -37.24164063 108.58304687 -38 108 C-37.45276317 104.62537285 -36.9451 102.91765 -35 100 C-34.12257221 94.73543326 -36.09725871 91.66756658 -38.6953125 87.30078125 C-40.56425039 84.00495964 -41.80111032 80.58280904 -43 77 C-43.33902344 76.06800781 -43.67804687 75.13601562 -44.02734375 74.17578125 C-45.35430375 69.84317692 -45.74997871 65.51615175 -46.2421875 61.0234375 C-47.12022647 57.52033355 -48.22838718 56.248667 -51 54 C-53.13309192 52.76487921 -53.13309192 52.76487921 -55 52 C-55.40214229 45.83381819 -53.96818336 40.82254243 -52 35 C-50.78763672 35.08701172 -50.78763672 35.08701172 -49.55078125 35.17578125 C-42.96692773 35.64944735 -42.96692773 35.64944735 -37.25 32.9375 C-36.13625 31.4834375 -36.13625 31.4834375 -35 30 C-30.65713952 25.82819311 -26.16997465 22.25630111 -20.95703125 19.23828125 C-18.8677967 17.9745685 -18.8677967 17.9745685 -16.65234375 16.0546875 C-13.80898032 13.85202304 -10.98985796 12.36459944 -7.75 10.8125 C-4.1350309 9.2664937 -4.1350309 9.2664937 -1 7 C-0.67 4.69 -0.34 2.38 0 0 Z M3 2 C2.835 3.32 2.67 4.64 2.5 6 C1.29947143 9.80567558 -0.26801283 11.38499355 -3.65625 13.2734375 C-7.11837096 15.01877804 -10.65444229 16.58944666 -14.23828125 18.06787109 C-16.24464877 19.12944415 -17.54546928 20.26183578 -19 22 C-19 22.66 -19 23.32 -19 24 C-20.299375 24.0928125 -20.299375 24.0928125 -21.625 24.1875 C-28.02321048 25.72780993 -31.71445967 30.61465443 -35.703125 35.546875 C-38.25624265 38.40759718 -40.96335789 38.26445936 -44.625 38.5625 C-45.62789062 38.64628906 -46.63078125 38.73007812 -47.6640625 38.81640625 C-48.43492188 38.87699219 -49.20578125 38.93757813 -50 39 C-52.10870294 44.38191985 -52.10870294 44.38191985 -52 50 C-49.14748615 52.17946646 -49.14748615 52.17946646 -46 54 C-43.84643783 57.23034325 -43.79240274 58.15371349 -43.6875 61.875 C-42.97757117 71.1652755 -39.00821055 79.18301143 -34.6875 87.3125 C-32.13429822 92.27450654 -31.19508828 95.46623196 -32 101 C-32.66 101.99 -33.32 102.98 -34 104 C-34.35013765 107.02609744 -34.35013765 107.02609744 -32.390625 108.640625 C-31.68421875 109.17171875 -30.9778125 109.7028125 -30.25 110.25 C-29.55390625 110.79140625 -28.8578125 111.3328125 -28.140625 111.890625 C-26.09095281 113.19921761 -26.09095281 113.19921761 -23.921875 112.796875 C-21.73341795 111.96218186 -21.73341795 111.96218186 -19 110 C-16.00390625 109.76953125 -16.00390625 109.76953125 -12.5625 109.8125 C-10.86287109 109.82216797 -10.86287109 109.82216797 -9.12890625 109.83203125 C-6.53750949 109.97114493 -4.47656553 110.32937351 -2 111 C1.75420132 111.12110327 5.12024742 111.15640046 8.8125 110.5 C12.71553556 109.88775913 16.47123027 109.97414522 20.4140625 110.0625 C22.81496688 110.0044721 24.6983116 109.62258785 27 109 C32.84405635 108.62296411 35.78493766 109.15542054 41 112 C45.13978192 112 45.98573504 111.67617664 49.25 109.5 C50.30960938 108.80390625 50.30960938 108.80390625 51.390625 108.09375 C51.92171875 107.7328125 52.4528125 107.371875 53 107 C52.49396008 104.83125748 52.00016187 103.00032373 51 101 C50.10256467 94.82051671 51.13191381 91.079924 54.6953125 86.046875 C56.50041169 83.21492298 57.38455118 80.28337145 58.32421875 77.078125 C59 75 59 75 60.01953125 73.171875 C61.37658103 70.1658205 61.61232749 67.26752545 62 64 C62.93711766 56.1014369 62.93711766 56.1014369 65 53 C68.125 50.75 68.125 50.75 71 49 C70.01 43.555 70.01 43.555 69 38 C67.47375 38.0825 65.9475 38.165 64.375 38.25 C59.3499351 38.22172959 56.84744056 37.41994716 53 34 C51.86355518 32.67640794 50.73935916 31.34223934 49.625 30 C46.68013058 26.48305882 44.04679803 24.73481663 39.8828125 22.9140625 C37.54958769 21.7813351 35.82686114 20.15028175 33.91015625 18.42578125 C30.20845894 15.66275565 25.94242232 13.72437291 21.828125 11.6484375 C19 10 19 10 17 7 C16.505 4.525 16.505 4.525 16 2 C11.71 2 7.42 2 3 2 Z " fill="#173036" transform="translate(55,6)"/>
<path d="M0 0 C4.29 0 8.58 0 13 0 C13.12375 1.03125 13.2475 2.0625 13.375 3.125 C14.44652804 6.92127077 16.28077112 8.15539281 19.625 10.125 C21.41083467 11.09415775 23.20247889 12.05269325 25 13 C26.48854525 13.8801616 27.9687715 14.7746539 29.4375 15.6875 C30.05496094 16.06261719 30.67242187 16.43773438 31.30859375 16.82421875 C33 18 33 18 34.4921875 19.54296875 C36.15996868 21.15458114 37.5474573 21.76551023 39.6875 22.625 C44.29140865 24.7955352 46.98899226 28.05655649 50.140625 31.9765625 C52.7824799 34.85152224 54.67733248 35.89979792 58.578125 36.1953125 C59.90070313 36.16050781 59.90070313 36.16050781 61.25 36.125 C63.60125 36.063125 63.60125 36.063125 66 36 C66.99 41.445 66.99 41.445 68 47 C67.05125 47.5775 66.1025 48.155 65.125 48.75 C60.93481743 51.76693145 60.08878651 54.09429901 59.21875 59.0390625 C58.84697911 61.34963858 58.49432164 63.66256454 58.14453125 65.9765625 C57.20511452 71.79488548 57.20511452 71.79488548 55 74 C54.48721036 75.56654418 54.03615161 77.15376435 53.625 78.75 C52.66986039 82.17380814 51.91649039 84.11691345 49.8125 87.0625 C47.38942093 90.98955918 47.25939216 94.4788475 48 99 C48.99 100.485 48.99 100.485 50 102 C50 102.99 50 103.98 50 105 C48.03125 106.60546875 48.03125 106.60546875 45.5 108.1875 C44.6646875 108.71730469 43.829375 109.24710937 42.96875 109.79296875 C42.3190625 110.19128906 41.669375 110.58960937 41 111 C38.91666667 109.95833333 36.83333333 108.91666667 34.75 107.875 C30.6904435 106.58332293 26.38422485 106.31052217 22.23046875 107.51171875 C18.95805497 108.22809655 15.7051673 108.06379631 12.375 108 C7.54561415 107.71783102 7.54561415 107.71783102 3 109 C-4.13424658 109.23013699 -4.13424658 109.23013699 -6.8515625 108.5078125 C-9.75508439 107.82152551 -12.5191924 107.79102029 -15.5 107.75 C-16.6240625 107.72421875 -17.748125 107.6984375 -18.90625 107.671875 C-22.33930999 108.03598742 -23.34908091 108.95564715 -26 111 C-29.18613275 110.75918764 -31.2354916 109.3233813 -33.75 107.4375 C-34.36359375 106.98246094 -34.9771875 106.52742188 -35.609375 106.05859375 C-36.06828125 105.70925781 -36.5271875 105.35992187 -37 105 C-36.49396008 102.83125748 -36.00016187 101.00032373 -35 99 C-34.11725099 92.19022195 -36.1619383 88.18286965 -39.3359375 82.2109375 C-43.57908092 74.02346357 -46.22068733 66.52292509 -46.703125 57.31640625 C-47.13687608 53.93200639 -48.48291311 52.22941982 -51 50 C-53.11660427 48.68834743 -53.11660427 48.68834743 -55 48 C-54.125 40.375 -54.125 40.375 -53 37 C-51.93072266 36.99613281 -51.93072266 36.99613281 -50.83984375 36.9921875 C-44.62370343 36.74119933 -40.94327697 36.05482457 -36.48828125 31.62109375 C-35.99714844 31.08613281 -35.50601563 30.55117188 -35 30 C-28.58333333 23.58333333 -28.58333333 23.58333333 -26 22 C-24.68 22 -23.36 22 -22 22 C-21.74347656 21.3915625 -21.48695312 20.783125 -21.22265625 20.15625 C-19.85445294 17.74331637 -18.79554553 16.91006359 -16.4375 15.5 C-15.73109375 15.07203125 -15.0246875 14.6440625 -14.296875 14.203125 C-11.97213078 12.98540184 -9.65420742 12.13672489 -7.1875 11.25 C-4.34456774 10.07361424 -3.26150964 9.4766758 -1.765625 6.75 C-0.80396192 3.99005899 -0.80396192 3.99005899 0 0 Z M1.8828125 4.5 C1.57085937 5.16 1.25890625 5.82 0.9375 6.5 C-2.10713972 12.47258593 -7.83344117 14.4465308 -13.6015625 17.23828125 C-17.26040925 19.10927741 -17.26040925 19.10927741 -20 22 C-20 22.66 -20 23.32 -20 24 C-20.99 24 -21.98 24 -23 24 C-28.49940327 24.74738341 -31.4734407 29.08079286 -35 33 C-38.77360536 36.92706067 -40.70718358 38.07628571 -46.125 38.5625 C-47.03507812 38.64628906 -47.94515625 38.73007812 -48.8828125 38.81640625 C-49.58148438 38.87699219 -50.28015625 38.93757813 -51 39 C-52.02524328 42.2499712 -52.02524328 42.2499712 -52 46 C-49.43748052 48.3647196 -49.43748052 48.3647196 -47.49609375 49.71484375 C-44.24901981 52.5041057 -44.15403559 56.97934681 -43.55078125 60.9765625 C-43.38964844 62.03617188 -43.22851562 63.09578125 -43.0625 64.1875 C-42.92972656 65.19167969 -42.79695313 66.19585937 -42.66015625 67.23046875 C-41.94820613 70.21728908 -40.86720282 71.61821373 -39 74 C-38.4453125 76.04296875 -38.4453125 76.04296875 -38.125 78.1875 C-37.44582875 81.81958971 -36.35999028 84.18722528 -34.3125 87.25 C-31.23549243 92.28348636 -32.04148152 96.53212142 -32.99609375 102.1796875 C-33.32808439 105.10293845 -33.32808439 105.10293845 -31.16015625 106.89453125 C-29.10463055 108.19027074 -29.10463055 108.19027074 -27 107.8125 C-24.99141926 107.05829745 -24.99141926 107.05829745 -23.25 105.9375 C-17.6321054 103.59671058 -11.7675775 105.18531587 -6.09765625 106.546875 C-0.87990921 107.67398609 3.06803759 106.87884282 8 105 C8.33 105.33 8.66 105.66 9 106 C10.60163916 106.09919077 12.20779918 106.12969898 13.8125 106.125 C14.68519531 106.12757812 15.55789062 106.13015625 16.45703125 106.1328125 C18.80834122 106.01000983 20.73013368 105.57186555 23 105 C29.33129126 104.50934852 33.58631784 104.49702919 39 108 C42.20028195 107.16183092 44.2343433 105.84377113 47 104 C46.505 102.453125 46.505 102.453125 46 100.875 C44.76867852 96.33902895 43.89484216 92.98598514 46.30859375 88.6484375 C47.39978936 86.91613176 48.50016676 85.18957774 49.609375 83.46875 C51.35848443 80.36358944 51.64147969 77.51349908 52 74 C52.72606445 73.28142822 52.72606445 73.28142822 53.46679688 72.54833984 C56.08357865 69.9057236 56.01388327 66.17785315 56.5 62.625 C57.36006881 56.40277376 58.08289421 51.41703051 63.1875 47.1875 C63.785625 46.795625 64.38375 46.40375 65 46 C64.505 42.535 64.505 42.535 64 39 C62.85724609 38.95746094 62.85724609 38.95746094 61.69140625 38.9140625 C55.04881484 38.30038989 51.49069024 37.2012951 47.0625 32.0625 C46.39347656 31.18722656 45.72445312 30.31195313 45.03515625 29.41015625 C42.48692032 26.39237972 39.87787368 24.34143158 35.9375 23.625 C34 23 34 23 32.31640625 20.6796875 C29.59909908 17.53622592 26.72480659 16.12862882 23 14.5 C18.23230415 12.41537985 14.92867437 10.44933221 12 6 C11.505 4.515 11.505 4.515 11 3 C5.87305652 1.99583529 5.87305652 1.99583529 1.8828125 4.5 Z " fill="#0297D6" transform="translate(58,8)"/>
<path d="M0 0 C3 1 3 1 4.0625 2.70703125 C4.371875 3.40183594 4.68125 4.09664063 5 4.8125 C6.11033624 7.1990848 7.10026731 9.13368975 8.6875 11.25 C10 13 10 13 10.33203125 14.9765625 C10.81696082 17.14810118 10.81696082 17.14810118 12.8125 18.1953125 C13.534375 18.50210938 14.25625 18.80890625 15 19.125 C18.90660592 20.81321185 18.90660592 20.81321185 20 23 C28.08154811 25.18420219 36.46904094 25.26114017 43.875 21.25 C45.59805314 20.19023504 47.30811791 19.10885026 49 18 C49.66644531 17.60941406 50.33289063 17.21882813 51.01953125 16.81640625 C52.85169144 15.76013205 52.85169144 15.76013205 55 14 C55 13.01 55 12.02 55 11 C55.875 8.95703125 55.875 8.95703125 57 6.8125 C57.556875 5.73935547 57.556875 5.73935547 58.125 4.64453125 C58.41375 4.10183594 58.7025 3.55914062 59 3 C59.33 3 59.66 3 60 3 C60.495 5.475 60.495 5.475 61 8 C62.32 7.34 63.64 6.68 65 6 C63.91824321 9.06497756 62.71638038 11.41708767 60.875 14.125 C58.72686611 16.84674154 58.72686611 16.84674154 59 20 C52.84231986 27.21603141 45.09203281 30.11046367 35.9375 31.3125 C35.26468994 31.40112305 34.59187988 31.48974609 33.89868164 31.58105469 C22.37583388 32.84931481 13.32321139 29.23698547 3.96875 22.9140625 C1.58609946 20.5975967 1.48754545 19.22182096 1 16 C-0.1480434 14.0348909 -0.1480434 14.0348909 -1.5625 12.3125 C-4 9.19830028 -4 9.19830028 -4 7 C-4.66 7 -5.32 7 -6 7 C-6.33 5.02 -6.66 3.04 -7 1 C-4.53199953 2.15173355 -2.95216435 3.04783565 -1 5 C-0.67 3.35 -0.34 1.7 0 0 Z " fill="#D4CC04" transform="translate(34,77)"/>
<path d="M0 0 C3.08364682 0.33039073 3.97847097 0.97657135 6.125 3.3125 C8.89684114 7.2854723 10.26914723 9.84899434 10.125 14.75 C10.10695313 15.54921875 10.08890625 16.3484375 10.0703125 17.171875 C10.04710938 17.77515625 10.02390625 18.3784375 10 19 C9.01 19.33 8.02 19.66 7 20 C6.34 18.35 5.68 16.7 5 15 C4.34 15 3.68 15 3 15 C3.33 17.31 3.66 19.62 4 22 C3.34 22 2.68 22 2 22 C2.33 22.66 2.66 23.32 3 24 C3.13415472 26.6723621 3.04318541 29.32250488 3 32 C3.99 31.01 4.98 30.02 6 29 C5.34 28.67 4.68 28.34 4 28 C4.66 27.34 5.32 26.68 6 26 C6.70710678 24.35008418 7.37943989 22.68437744 8 21 C8.99 21 9.98 21 11 21 C11.125 23.375 11.125 23.375 11 26 C10.34 26.66 9.68 27.32 9 28 C9.66 28.33 10.32 28.66 11 29 C11.625 31.5625 11.625 31.5625 12 34 C12.61875 33.34 13.2375 32.68 13.875 32 C16 30 16 30 18 30 C17.62462978 35.00493624 15.90366335 37.99208688 13.1953125 42.046875 C11.82111396 44.1233239 11.82111396 44.1233239 10.9375 47.25 C9.86850204 50.38572735 8.47760782 51.85273989 6 54 C5.34 53.67 4.68 53.34 4 53 C6.475 50.03 6.475 50.03 9 47 C8.67 46.34 8.34 45.68 8 45 C8.66 45 9.32 45 10 45 C11.07525194 42.34771188 12.09456151 39.71631546 13 37 C11.515 37.495 11.515 37.495 10 38 C9.505 35.525 9.505 35.525 9 33 C8.30300448 34.45381897 7.61766134 35.91322953 6.9375 37.375 C6.36322266 38.59316406 6.36322266 38.59316406 5.77734375 39.8359375 C5.39255859 40.90714844 5.39255859 40.90714844 5 42 C5.33 42.66 5.66 43.32 6 44 C3 46 3 46 0 46 C-0.495 44.515 -0.495 44.515 -1 43 C-1.350625 43.495 -1.70125 43.99 -2.0625 44.5 C-4.94374289 46.73063966 -7.47009026 46.19980621 -11 46 C-12.76462683 42.91190305 -13 41.76687864 -13 38 C-10.49515403 35.58152803 -9.53986194 35 -6 35 C-6 34.34 -6 33.68 -6 33 C-5.34 33 -4.68 33 -4 33 C-3.67 33.66 -3.34 34.32 -3 35 C-3.02320312 34.443125 -3.04640625 33.88625 -3.0703125 33.3125 C-3.16477892 29.31792007 -3.09479286 25.88608148 -1.875 22.0625 C-0.45407655 17.17807563 -1.71936935 12.80729043 -3 8 C-2.01 8 -1.02 8 0 8 C0 5.36 0 2.72 0 0 Z " fill="#465E32" transform="translate(84,48)"/>
<path d="M0 0 C0.99 0.33 1.98 0.66 3 1 C2.484375 1.680625 1.96875 2.36125 1.4375 3.0625 C-0.45650872 6.93286565 -0.08807032 8.8653328 1 13 C3.28712189 17.22305594 3.28712189 17.22305594 7 20 C7.33 20.99 7.66 21.98 8 23 C10.90092502 24.93395001 11.89674737 25.30131941 15.1875 25.625 C16.445625 25.74875 17.70375 25.8725 19 26 C17.125 30.875 17.125 30.875 16 32 C7.61832061 32.41221374 7.61832061 32.41221374 4 30 C3.67 31.32 3.34 32.64 3 34 C3.763125 33.95875 4.52625 33.9175 5.3125 33.875 C8 34 8 34 11 36 C14.83836402 36.25032809 18.26351589 35.87917273 22 35 C21.01 36.98 20.02 38.96 19 41 C17.35 41 15.7 41 14 41 C13.67 41.66 13.34 42.32 13 43 C12.67 42.01 12.34 41.02 12 40 C10.02719591 39.26543322 10.02719591 39.26543322 7.6875 38.9375 C4.44113432 38.37408116 1.89300015 37.59545317 -1 36 C-1 35.34 -1 34.68 -1 34 C-1.8971875 33.7215625 -1.8971875 33.7215625 -2.8125 33.4375 C-6.15155459 31.24326413 -7.14099993 28.76037794 -8 25 C-8.86940786 18.5561535 -9.46940148 12.61867191 -6.20703125 6.8046875 C-4.25089816 4.37423541 -2.26205905 2.14592655 0 0 Z " fill="#029BDC" transform="translate(50,50)"/>
<path d="M0 0 C6.64584719 0.34978143 9.83664827 1.80477672 15 6 C14.01 6.99 13.02 7.98 12 9 C11.34 8.01 10.68 7.02 10 6 C8.02252878 5.63702064 8.02252878 5.63702064 5.875 5.8125 C4.59625 5.874375 3.3175 5.93625 2 6 C1.80377759 10.21878192 2.19769832 13.17010894 4 17 C4.66 17 5.32 17 6 17 C5.34 15.68 4.68 14.36 4 13 C10.19375416 15.18603088 15.48792191 18.32664309 19 24 C19.49828407 27.48798848 19.47008515 29.23076975 17.625 32.25 C14.49619507 35.61948223 13.17370448 36.33358313 8.5625 36.75 C7.59441406 36.84796875 6.62632813 36.9459375 5.62890625 37.046875 C3 37 3 37 0 35 C-1.65549531 34.61500109 -3.3222433 34.27206865 -5 34 C-4.67 32.68 -4.34 31.36 -4 30 C-3.505 30.165 -3.01 30.33 -2.5 30.5 C1.22372964 31.24474593 4.18143109 31.36367323 8 31 C10.08216876 28.6450037 10.08216876 28.6450037 11 26 C9.7625 26.061875 8.525 26.12375 7.25 26.1875 C4.35266367 26.1875 3.12461551 26.06542314 0.5 24.6875 C-1 23 -1 23 -1 20 C-2.32 19.34 -3.64 18.68 -5 18 C-4.67 15.36 -4.34 12.72 -4 10 C-4.66 10 -5.32 10 -6 10 C-6.33 10.66 -6.66 11.32 -7 12 C-7.36923077 6.58461538 -7.36923077 6.58461538 -5.5 3.625 C-5.005 3.08875 -4.51 2.5525 -4 2 C-3.01 2.33 -2.02 2.66 -1 3 C-0.67 2.01 -0.34 1.02 0 0 Z " fill="#4A5C67" transform="translate(58,50)"/>
<path d="M0 0 C0 0.33 0 0.66 0 1 C-2.31 1.33 -4.62 1.66 -7 2 C-5.63875 2.37125 -5.63875 2.37125 -4.25 2.75 C-1 4 -1 4 0.9375 6.0625 C3.76406319 8.71775633 6.21942016 8.70918617 10 9 C9.01 9.33 8.02 9.66 7 10 C7.23976563 10.6290625 7.47953125 11.258125 7.7265625 11.90625 C9.5547744 17.18421826 10.32659025 20.53420581 8.55078125 25.83984375 C7.45834364 30.12436858 7.85471716 34.60922972 8 39 C7.01 39.495 7.01 39.495 6 40 C6 38.35 6 36.7 6 35 C5.34 35 4.68 35 4 35 C4 35.66 4 36.32 4 37 C1.525 37.495 1.525 37.495 -1 38 C-0.505 37.46375 -0.01 36.9275 0.5 36.375 C2.47945017 33.24087057 2.58503961 31.65649759 2 28 C-1.39434008 22.69634362 -5.27036696 20.41696679 -11 18 C-10.67 18.99 -10.34 19.98 -10 21 C-10.66 21 -11.32 21 -12 21 C-14.82918336 17.30029868 -15.41935884 14.61294726 -15 10 C-14 9 -14 9 -11.1875 8.625 C-8 9 -8 9 -5.6875 11.125 C-3.89268729 14.18282906 -3.32622703 16.49305941 -3 20 C-2.34 20 -1.68 20 -1 20 C-1 17.69 -1 15.38 -1 13 C0.98 12.67 2.96 12.34 5 12 C0.545 9.525 0.545 9.525 -4 7 C-4 6.34 -4 5.68 -4 5 C-7.67387495 4.14701624 -11.0447393 3.89210529 -14.8125 3.9375 C-15.78832031 3.94652344 -16.76414063 3.95554687 -17.76953125 3.96484375 C-18.50558594 3.97644531 -19.24164063 3.98804688 -20 4 C-18.56546798 1.13093596 -16.38158016 0.58762006 -13.4765625 -0.46875 C-8.95839097 -1.43794768 -4.52381067 -0.69021376 0 0 Z " fill="#019CDF" transform="translate(74,46)"/>
<path d="M0 0 C4.29 0 8.58 0 13 0 C13 0.33 13 0.66 13 1 C9.04 1 5.08 1 1 1 C1 1.66 1 2.32 1 3 C1.66 3 2.32 3 3 3 C1.77038684 7.50858158 0.55193741 9.970579 -3 13 C-5.94993446 14.56962674 -8.91334138 15.98056607 -11.95507812 17.35546875 C-15.66530632 19.1056511 -17.68361373 20.65727643 -20 24 C-21.0725 24.268125 -22.145 24.53625 -23.25 24.8125 C-28.23478832 26.3910163 -30.57110807 29.19466648 -34 33 C-39.73631409 38.94820959 -39.73631409 38.94820959 -43.3828125 39.09765625 C-44.28773437 39.08605469 -45.19265625 39.07445312 -46.125 39.0625 C-47.03507812 39.05347656 -47.94515625 39.04445312 -48.8828125 39.03515625 C-49.58148438 39.02355469 -50.28015625 39.01195312 -51 39 C-51.50196294 42.28926495 -51.50196294 42.28926495 -51 46 C-49.52464054 47.28292127 -48.04004335 48.56202234 -46.4609375 49.71484375 C-43.25761916 52.53273608 -43.15285443 56.98717329 -42.55078125 60.9765625 C-42.38964844 62.03617188 -42.22851562 63.09578125 -42.0625 64.1875 C-41.92972656 65.19167969 -41.79695313 66.19585937 -41.66015625 67.23046875 C-40.95236544 70.19983967 -39.85796422 71.6357785 -38 74 C-38 74.99 -38 75.98 -38 77 C-38.66 77 -39.32 77 -40 77 C-40.495 77.99 -40.495 77.99 -41 79 C-43.7063765 72.71841027 -46.20517561 66.89259945 -46.5625 60 C-46.75059765 56.4104698 -46.92438183 55.12776862 -48.8125 51.9375 C-50.82482345 50.15515637 -52.50701633 48.97938644 -55 48 C-54.125 40.375 -54.125 40.375 -53 37 C-51.93072266 36.99613281 -51.93072266 36.99613281 -50.83984375 36.9921875 C-44.62370343 36.74119933 -40.94327697 36.05482457 -36.48828125 31.62109375 C-35.99714844 31.08613281 -35.50601563 30.55117188 -35 30 C-28.58333333 23.58333333 -28.58333333 23.58333333 -26 22 C-24.68 22 -23.36 22 -22 22 C-21.74347656 21.3915625 -21.48695312 20.783125 -21.22265625 20.15625 C-19.85445294 17.74331637 -18.79554553 16.91006359 -16.4375 15.5 C-15.73109375 15.07203125 -15.0246875 14.6440625 -14.296875 14.203125 C-11.97213078 12.98540184 -9.65420742 12.13672489 -7.1875 11.25 C-4.34456774 10.07361424 -3.26150964 9.4766758 -1.765625 6.75 C-0.80396192 3.99005899 -0.80396192 3.99005899 0 0 Z " fill="#0293D0" transform="translate(58,8)"/>
<path d="M0 0 C5.75 0.75 5.75 0.75 8 3 C8.70211894 4.65204456 9.36971413 6.31923769 10 8 C10.495 8.99 10.495 8.99 11 10 C8.03 10 5.06 10 2 10 C1.505 9.01 1.505 9.01 1 8 C-2.45275062 6.67983065 -4.52442938 7.02356294 -7.8125 8.4375 C-8.864375 8.953125 -9.91625 9.46875 -11 10 C-10.11248047 9.96519531 -10.11248047 9.96519531 -9.20703125 9.9296875 C-4.70465218 9.82685992 -1.03667676 9.74421004 3 12 C4 13 5 14 6 15 C8.28978567 16.42532726 10.63213883 17.70437785 13 19 C13 19.33 13 19.66 13 20 C10.69 20 8.38 20 6 20 C6 22.31 6 24.62 6 27 C5.34 27 4.68 27 4 27 C3.54625 25.9275 3.0925 24.855 2.625 23.75 C1.49911463 21.11937683 0.32079794 18.53999604 -1 16 C-0.38125 16.33 0.2375 16.66 0.875 17 C2.91018344 18.14193235 2.91018344 18.14193235 5 18 C0.83724931 14.44011711 0.83724931 14.44011711 -4 12 C-6.35551428 12.29443928 -8.00185874 13.00092937 -10.125 14.0625 C-12 15 -12 15 -14 15 C-14.33 16.98 -14.66 18.96 -15 21 C-14.34 21 -13.68 21 -13 21 C-13 23.31 -13 25.62 -13 28 C-13.66 28 -14.32 28 -15 28 C-17.15384835 24.4676887 -18.02538344 22.49920756 -17.8125 18.3125 C-17 15 -17 15 -15 12 C-15.66 11.67 -16.32 11.34 -17 11 C-17.226875 11.53625 -17.45375 12.0725 -17.6875 12.625 C-19 15 -19 15 -21.5625 17.59375 C-24.8255634 21.45648918 -24.58036652 25.0121924 -24.3125 29.875 C-24.28994141 30.65875 -24.26738281 31.4425 -24.24414062 32.25 C-24.18568018 34.1675026 -24.09601283 36.0840106 -24 38 C-25.65 37.34 -27.3 36.68 -29 36 C-29.33 36.99 -29.66 37.98 -30 39 C-30.33 37.02 -30.66 35.04 -31 33 C-30.67 33.66 -30.34 34.32 -30 35 C-28.515 34.505 -28.515 34.505 -27 34 C-27.0928125 33.16597656 -27.185625 32.33195312 -27.28125 31.47265625 C-27.86682508 22.34395906 -27.86682508 22.34395906 -25.21875 18.23828125 C-23 15.875 -23 15.875 -20.75 13.8046875 C-18.65192708 12.06002332 -18.65192708 12.06002332 -19 9 C-18.175 8.87625 -17.35 8.7525 -16.5 8.625 C-12.60227933 7.92897845 -8.83260331 6.99119051 -5 6 C-5 5.01 -5 4.02 -5 3 C-6.98 3 -8.96 3 -11 3 C-11 2.67 -11 2.34 -11 2 C-8.69 2 -6.38 2 -4 2 C-4 2.66 -4 3.32 -4 4 C-2.68 3.34 -1.36 2.68 0 2 C0 1.34 0 0.68 0 0 Z " fill="#22342D" transform="translate(67,39)"/>
<path d="M0 0 C0.33 0 0.66 0 1 0 C1.495 2.475 1.495 2.475 2 5 C3.32 4.34 4.64 3.68 6 3 C4.91824321 6.06497756 3.71638038 8.41708767 1.875 11.125 C-0.27313389 13.84674154 -0.27313389 13.84674154 0 17 C-4.85238894 22.68639329 -12.5218046 27.2330056 -20 28 C-22.33301986 28.03824623 -24.66711508 28.04574284 -27 28 C-27.33 26.68 -27.66 25.36 -28 24 C-33.94 23.01 -33.94 23.01 -40 22 C-39.67 21.34 -39.34 20.68 -39 20 C-38.2575 20.165 -37.515 20.33 -36.75 20.5 C-25.9268903 21.94308129 -19.22798784 21.0479727 -10 15 C-9.33355469 14.60941406 -8.66710937 14.21882813 -7.98046875 13.81640625 C-6.14830856 12.76013205 -6.14830856 12.76013205 -4 11 C-4 10.01 -4 9.02 -4 8 C-3.125 5.95703125 -3.125 5.95703125 -2 3.8125 C-1.62875 3.09707031 -1.2575 2.38164063 -0.875 1.64453125 C-0.58625 1.10183594 -0.2975 0.55914062 0 0 Z " fill="#E7DB02" transform="translate(93,80)"/>
<path d="M0 0 C6.64584719 0.34978143 9.83664827 1.80477672 15 6 C14.01 6.99 13.02 7.98 12 9 C11.34 8.01 10.68 7.02 10 6 C8.02252878 5.63702064 8.02252878 5.63702064 5.875 5.8125 C4.59625 5.874375 3.3175 5.93625 2 6 C1.80377759 10.21878192 2.19769832 13.17010894 4 17 C4.66 17 5.32 17 6 17 C5.34 15.68 4.68 14.36 4 13 C10.19375416 15.18603088 15.48792191 18.32664309 19 24 C19.25 27.3125 19.25 27.3125 19 30 C18.34 30.33 17.68 30.66 17 31 C17 29.02 17 27.04 17 25 C16.34 24.67 15.68 24.34 15 24 C15 23.01 15 22.02 15 21 C14.360625 20.87625 13.72125 20.7525 13.0625 20.625 C12.0415625 20.315625 12.0415625 20.315625 11 20 C10.67 19.34 10.34 18.68 10 18 C9.01 17.67 8.02 17.34 7 17 C7 18.32 7 19.64 7 21 C5.02 21 3.04 21 1 21 C1.66 20.67 2.32 20.34 3 20 C2.65213292 18.02463255 2.65213292 18.02463255 2 16 C1.34 15.67 0.68 15.34 0 15 C0 16.65 0 18.3 0 20 C-1.9375 19.625 -1.9375 19.625 -4 19 C-5.53445094 15.93109813 -4.54984289 13.29905734 -4 10 C-4.66 10 -5.32 10 -6 10 C-6.33 10.66 -6.66 11.32 -7 12 C-7.36923077 6.58461538 -7.36923077 6.58461538 -5.5 3.625 C-5.005 3.08875 -4.51 2.5525 -4 2 C-3.01 2.33 -2.02 2.66 -1 3 C-0.67 2.01 -0.34 1.02 0 0 Z " fill="#314F5E" transform="translate(58,50)"/>
<path d="M0 0 C0 0.99 0 1.98 0 3 C-1.60149886 3.67305018 -3.20631029 4.33822227 -4.8125 5 C-5.70582031 5.37125 -6.59914063 5.7425 -7.51953125 6.125 C-10 7 -10 7 -13 7 C-13.26554687 7.5878125 -13.53109375 8.175625 -13.8046875 8.78125 C-15.02392084 11.04440208 -16.40359134 12.60395568 -18.125 14.5 C-22.11473696 19.61306095 -21.5589028 24.78996894 -21 31 C-22.32 31.33 -23.64 31.66 -25 32 C-26.16297973 29.67404054 -26.16600691 28.21276769 -26.1875 25.625 C-26.20167969 24.85414062 -26.21585938 24.08328125 -26.23046875 23.2890625 C-25.97649954 20.76658866 -25.17323454 19.22224425 -24 17 C-23.95875 16.071875 -23.9175 15.14375 -23.875 14.1875 C-22.55028016 9.36173486 -19.04163303 6.7936032 -15 4 C-14.34 4 -13.68 4 -13 4 C-12.67 3.01 -12.34 2.02 -12 1 C-7.9472484 0.01751476 -4.16138263 -0.08159574 0 0 Z " fill="#D9D104" transform="translate(62,42)"/>
<path d="M0 0 C0.66 0.33 1.32 0.66 2 1 C2.125 3.375 2.125 3.375 2 6 C1.34 6.66 0.68 7.32 0 8 C0.66 8.33 1.32 8.66 2 9 C2.625 11.5625 2.625 11.5625 3 14 C3.61875 13.34 4.2375 12.68 4.875 12 C7 10 7 10 9 10 C8.62462978 15.00493624 6.90366335 17.99208688 4.1953125 22.046875 C2.82111396 24.1233239 2.82111396 24.1233239 1.9375 27.25 C0.86850204 30.38572735 -0.52239218 31.85273989 -3 34 C-3.66 33.67 -4.32 33.34 -5 33 C-3.35 31.02 -1.7 29.04 0 27 C-0.33 26.34 -0.66 25.68 -1 25 C-0.34 25 0.32 25 1 25 C2.07525194 22.34771188 3.09456151 19.71631546 4 17 C3.01 17.33 2.02 17.66 1 18 C0.505 15.525 0.505 15.525 0 13 C-0.69699552 14.45381897 -1.38233866 15.91322953 -2.0625 17.375 C-2.44535156 18.18710938 -2.82820313 18.99921875 -3.22265625 19.8359375 C-3.47917969 20.55007812 -3.73570313 21.26421875 -4 22 C-3.67 22.66 -3.34 23.32 -3 24 C-6 26 -6 26 -9 26 C-9.33 25.01 -9.66 24.02 -10 23 C-10.66 23.66 -11.32 24.32 -12 25 C-12 24.34 -12 23.68 -12 23 C-14.31 23 -16.62 23 -19 23 C-19.33 22.01 -19.66 21.02 -20 20 C-19.01 19.67 -18.02 19.34 -17 19 C-16.67 19.66 -16.34 20.32 -16 21 C-15.67 20.34 -15.34 19.68 -15 19 C-12.03 19.33 -9.06 19.66 -6 20 C-6.33 18.68 -6.66 17.36 -7 16 C-5.68 15.67 -4.36 15.34 -3 15 C-2.83312552 12.58354218 -2.83312552 12.58354218 -3 10 C-3.66 9.34 -4.32 8.68 -5 8 C-4.34 7.34 -3.68 6.68 -3 6 C-2.31246699 4.34183216 -1.64438717 2.67540664 -1 1 C-0.67 0.67 -0.34 0.34 0 0 Z " fill="#2A311A" transform="translate(93,68)"/>
<path d="M0 0 C0.99 0.33 1.98 0.66 3 1 C3 3.64 3 6.28 3 9 C4.32 8.34 5.64 7.68 7 7 C7.36923077 11.55384615 7.36923077 11.55384615 5.5 13.8125 C4.7575 14.4003125 4.7575 14.4003125 4 15 C3.67 14.67 3.34 14.34 3 14 C3 14.99 3 15.98 3 17 C-0.375 17.625 -0.375 17.625 -4 18 C-4.66 17.34 -5.32 16.68 -6 16 C-6.33 16.99 -6.66 17.98 -7 19 C-7.33 18.01 -7.66 17.02 -8 16 C-8.66 16.33 -9.32 16.66 -10 17 C-9.67 17.66 -9.34 18.32 -9 19 C-5.97065509 19.65772428 -5.97065509 19.65772428 -3 20 C-3.33 20.99 -3.66 21.98 -4 23 C-6.31 23 -8.62 23 -11 23 C-12.76462683 19.91190305 -13 18.76687864 -13 15 C-10.49515403 12.58152803 -9.53986194 12 -6 12 C-6 11.34 -6 10.68 -6 10 C-5.34 10 -4.68 10 -4 10 C-3.67 10.66 -3.34 11.32 -3 12 C-3 9.69 -3 7.38 -3 5 C-2.34 5 -1.68 5 -1 5 C-1 6.98 -1 8.96 -1 11 C-0.34 11 0.32 11 1 11 C0.67 7.37 0.34 3.74 0 0 Z " fill="#7A7E18" transform="translate(84,71)"/>
<path d="M0 0 C3 1 3 1 4.0625 2.70703125 C4.371875 3.40183594 4.68125 4.09664063 5 4.8125 C6.11033624 7.1990848 7.10026731 9.13368975 8.6875 11.25 C10 13 10 13 10.328125 14.96875 C10.82303539 17.15286615 10.82303539 17.15286615 12.84765625 18.265625 C13.57855469 18.59046875 14.30945313 18.9153125 15.0625 19.25 C15.79597656 19.58515625 16.52945313 19.9203125 17.28515625 20.265625 C18.13400391 20.62914062 18.13400391 20.62914062 19 21 C16 22 16 22 14.0625 21.0390625 C13.0415625 20.33910156 13.0415625 20.33910156 12 19.625 C8.86304614 17.49805022 6.43221595 16.11017046 2.5625 15.8125 C-1.18367036 14.62468988 -2.15476806 12.34875426 -4 9 C-4 8.34 -4 7.68 -4 7 C-4.66 7 -5.32 7 -6 7 C-6.33 5.02 -6.66 3.04 -7 1 C-4.53199953 2.15173355 -2.95216435 3.04783565 -1 5 C-0.67 3.35 -0.34 1.7 0 0 Z " fill="#404417" transform="translate(34,77)"/>
<path d="M0 0 C3.96 0.33 7.92 0.66 12 1 C12.8125 4.25 12.8125 4.25 13 8 C11.3603279 9.36639342 9.68889872 10.6949419 8 12 C5.08530118 17.68305293 4.40128921 24.13960576 3.625 30.3984375 C2.92762966 33.30124152 2.10634313 34.0094506 0 36 C-0.60570025 37.99916171 -0.60570025 37.99916171 -0.875 40.1875 C-1.54316467 43.78396897 -2.53978062 46.04762543 -4.6875 49 C-7.30367059 52.83602725 -7.28459262 55.42618881 -6.4921875 59.921875 C-6.01126335 61.95244363 -5.51895502 63.97880678 -5 66 C-5.66 66 -6.32 66 -7 66 C-9.53588464 61.24521631 -9.83540637 56.25230735 -9 51 C-7.9143088 49.05059907 -6.67092128 47.49193477 -5.234375 45.7890625 C-3.37357205 43.09207595 -3.02065807 40.31256702 -2.5546875 37.11328125 C-2 35 -2 35 -0.50390625 33.19140625 C2.20555315 29.24333684 1.87058435 24.39260708 2.27734375 19.7265625 C3.20480815 14.9438542 5.19149842 11.74152004 8.6875 8.375 C10.30693062 6.67845363 10.6068087 5.28050956 11 3 C9.741875 3.061875 8.48375 3.12375 7.1875 3.1875 C5.04296875 3.29296875 5.04296875 3.29296875 3 3 C2.01 2.01 1.02 1.02 0 0 Z " fill="#172D2A" transform="translate(110,46)"/>
<path d="M0 0 C-0.37508374 2.45367279 -0.65773344 3.69178547 -2.53125 5.37890625 C-8.20443957 8.78957379 -14.2666737 12.38095166 -21.0625 11.6875 C-21.701875 11.460625 -22.34125 11.23375 -23 11 C-23.33 9.68 -23.66 8.36 -24 7 C-22.824375 6.9175 -21.64875 6.835 -20.4375 6.75 C-15.83356117 6.20307819 -12.92776241 4.38746343 -9 2 C-8.01 2 -7.02 2 -6 2 C-6 1.34 -6 0.68 -6 0 C-2.25 -1.125 -2.25 -1.125 0 0 Z " fill="#D0C904" transform="translate(91,96)"/>
<path d="M0 0 C6.64584719 0.34978143 9.83664827 1.80477672 15 6 C14.01 6.99 13.02 7.98 12 9 C11.29875 8.154375 10.5975 7.30875 9.875 6.4375 C7.20542015 3.60690249 7.20542015 3.60690249 3.6875 4.1875 C2.800625 4.455625 1.91375 4.72375 1 5 C0.7834375 6.36125 0.7834375 6.36125 0.5625 7.75 C-0.16134067 11.93219052 -0.62604885 14.43907327 -3 18 C-4 17 -4 17 -4.0625 13.4375 C-4.041875 12.303125 -4.02125 11.16875 -4 10 C-4.66 10 -5.32 10 -6 10 C-6.33 10.66 -6.66 11.32 -7 12 C-7.36923077 6.58461538 -7.36923077 6.58461538 -5.5 3.625 C-5.005 3.08875 -4.51 2.5525 -4 2 C-3.01 2.33 -2.02 2.66 -1 3 C-0.67 2.01 -0.34 1.02 0 0 Z " fill="#EDEDED" transform="translate(58,50)"/>
<path d="M0 0 C5.75 0.75 5.75 0.75 8 3 C8.70211894 4.65204456 9.36971413 6.31923769 10 8 C10.33 8.66 10.66 9.32 11 10 C8.03 10 5.06 10 2 10 C1.67 9.34 1.34 8.68 1 8 C-2.55607243 6.59912298 -4.71582851 7.12503028 -8.125 8.5 C-9.11886719 8.94859375 -9.11886719 8.94859375 -10.1328125 9.40625 C-12 10 -12 10 -15 9 C-13.70990357 8.49596232 -12.41786211 7.99690074 -11.125 7.5 C-10.04605469 7.08234375 -10.04605469 7.08234375 -8.9453125 6.65625 C-7 6 -7 6 -5 6 C-5 5.01 -5 4.02 -5 3 C-6.98 3 -8.96 3 -11 3 C-11 2.67 -11 2.34 -11 2 C-8.69 2 -6.38 2 -4 2 C-4 2.66 -4 3.32 -4 4 C-2.68 3.34 -1.36 2.68 0 2 C0 1.34 0 0.68 0 0 Z " fill="#424D1E" transform="translate(67,39)"/>
<path d="M0 0 C2 3 2 3 2 5 C4.31 5 6.62 5 9 5 C7.625 6.5 7.625 6.5 6 8 C5.34 8 4.68 8 4 8 C4.350625 8.598125 4.70125 9.19625 5.0625 9.8125 C6 12 6 12 5 15 C4.01 14.34 3.02 13.68 2 13 C-0.63434254 13.32126128 -2.62710097 13.81355048 -5 15 C-4.9071875 13.3603125 -4.9071875 13.3603125 -4.8125 11.6875 C-4.64402086 8.07873917 -4.64402086 8.07873917 -6.5 6.0625 C-6.995 5.711875 -7.49 5.36125 -8 5 C-6.576875 4.87625 -6.576875 4.87625 -5.125 4.75 C-1.89538209 4.34925077 -1.89538209 4.34925077 -0.625 1.9375 C-0.41875 1.298125 -0.2125 0.65875 0 0 Z " fill="#E9E002" transform="translate(64,21)"/>
<path d="M0 0 C6.27 0 12.54 0 19 0 C19.66 2.31 20.32 4.62 21 7 C22.62151866 8.71301076 22.62151866 8.71301076 24.6875 9.6875 C25.39261719 10.07679687 26.09773438 10.46609375 26.82421875 10.8671875 C27.54222656 11.24101562 28.26023437 11.61484375 29 12 C30.3356516 12.76680936 31.66918777 13.5373222 33 14.3125 C33.99 14.869375 34.98 15.42625 36 16 C35.34 16.99 34.68 17.98 34 19 C31.55603625 17.76148455 29.12036006 16.50999364 26.6875 15.25 C25.99720703 14.90195312 25.30691406 14.55390625 24.59570312 14.1953125 C17.82356957 10.66202543 17.82356957 10.66202543 16 7 C17 4 17 4 18 1 C12.39 1 6.78 1 1 1 C1 2.98 1 4.96 1 7 C0.67 7 0.34 7 0 7 C0 4.69 0 2.38 0 0 Z " fill="#153940" transform="translate(55,6)"/>
<path d="M0 0 C1.9375 0.375 1.9375 0.375 4 1 C4.33 1.66 4.66 2.32 5 3 C7.70599842 3.47597366 10.33595404 3.84093629 13.0625 4.125 C13.82111328 4.21136719 14.57972656 4.29773438 15.36132812 4.38671875 C17.23996986 4.59939517 19.11988636 4.80075459 21 5 C21 6.65 21 8.3 21 10 C14.93179132 11.08360869 10.89893243 10.79074734 5 9 C5.99 8.67 6.98 8.34 8 8 C8 7.34 8 6.68 8 6 C7.01 6.33 6.02 6.66 5 7 C2.3125 5.8125 2.3125 5.8125 0 4 C0 2.68 0 1.36 0 0 Z " fill="#CDC504" transform="translate(45,98)"/>
<path d="M0 0 C5.61 0 11.22 0 17 0 C17 1.65 17 3.3 17 5 C16.34 3.68 15.68 2.36 15 1 C10.71 1 6.42 1 2 1 C1.9175 2.0725 1.835 3.145 1.75 4.25 C0.90370931 8.48145344 0.23541671 9.31644367 -3 12 C-5.9453125 13.484375 -5.9453125 13.484375 -9.125 14.75 C-10.70667969 15.39195313 -10.70667969 15.39195313 -12.3203125 16.046875 C-15.22777668 17.08101678 -16.91507608 17 -20 17 C-16.48432207 14.00972781 -13.02018127 11.83314601 -8.875 9.8125 C-7.84117188 9.30332031 -6.80734375 8.79414063 -5.7421875 8.26953125 C-3 7 -3 7 0 6 C0 4.02 0 2.04 0 0 Z " fill="#19272B" transform="translate(56,7)"/>
<path d="M0 0 C0 0.99 0 1.98 0 3 C-10.37357631 7.59225513 -10.37357631 7.59225513 -16 7 C-16.28875 7.5775 -16.5775 8.155 -16.875 8.75 C-17.91666667 10.83333333 -18.95833333 12.91666667 -20 15 C-20.66 14.67 -21.32 14.34 -22 14 C-22 10 -22 10 -20.5390625 8.296875 C-19.90742187 7.78640625 -19.27578125 7.2759375 -18.625 6.75 C-17.99851562 6.22921875 -17.37203125 5.7084375 -16.7265625 5.171875 C-15 4 -15 4 -13 4 C-12.67 3.01 -12.34 2.02 -12 1 C-7.9472484 0.01751476 -4.16138263 -0.08159574 0 0 Z " fill="#636018" transform="translate(62,42)"/>
<path d="M0 0 C9.73770492 -0.38187078 9.73770492 -0.38187078 14 2 C15 3 16 4 17 5 C19.28978567 6.42532726 21.63213883 7.70437785 24 9 C24 9.33 24 9.66 24 10 C21.69 10 19.38 10 17 10 C17 12.31 17 14.62 17 17 C16.34 17 15.68 17 15 17 C14.319375 15.39125 14.319375 15.39125 13.625 13.75 C12.49911463 11.11937683 11.32079794 8.53999604 10 6 C10.61875 6.33 11.2375 6.66 11.875 7 C13.91018344 8.14193235 13.91018344 8.14193235 16 8 C11.83724931 4.44011711 11.83724931 4.44011711 7 2 C4.02531947 2.37183507 1.6264883 3.5929527 -1 5 C-0.67 3.35 -0.34 1.7 0 0 Z " fill="#2A353D" transform="translate(56,49)"/>
<path d="M0 0 C0.99 0.33 1.98 0.66 3 1 C3 3.64 3 6.28 3 9 C4.32 8.34 5.64 7.68 7 7 C7.36923077 11.55384615 7.36923077 11.55384615 5.5 13.8125 C5.005 14.204375 4.51 14.59625 4 15 C3.67 14.67 3.34 14.34 3 14 C3 14.99 3 15.98 3 17 C0.5625 16.1875 0.5625 16.1875 -2 15 C-3.1577506 11.52674819 -3.06866652 8.63932552 -3 5 C-2.34 5 -1.68 5 -1 5 C-1 6.98 -1 8.96 -1 11 C-0.34 11 0.32 11 1 11 C0.67 7.37 0.34 3.74 0 0 Z " fill="#4A7425" transform="translate(84,71)"/>
<path d="M0 0 C2.50330006 0.38348427 3.70579657 0.66841161 5.4140625 2.59375 C5.81367187 3.2228125 6.21328125 3.851875 6.625 4.5 C8.33468108 7.26274124 8.33468108 7.26274124 11 9 C11 9.66 11 10.32 11 11 C11.7734375 11.1546875 11.7734375 11.1546875 12.5625 11.3125 C15.86026435 12.24263866 18.86633332 13.61395512 22 15 C22 16.32 22 17.64 22 19 C20.68 18.67 19.36 18.34 18 18 C18.66 18 19.32 18 20 18 C20 17.34 20 16.68 20 16 C16.52852158 15.25042843 16.52852158 15.25042843 13 15 C12.01 15 11.02 15 10 15 C10 14.01 10 13.02 10 12 C8.68 11.67 7.36 11.34 6 11 C6 10.01 6 9.02 6 8 C4.56249809 6.31201173 4.56249809 6.31201173 3 5 C2.67 5.66 2.34 6.32 2 7 C0 4 0 4 0 0 Z " fill="#D7CF04" transform="translate(38,75)"/>
<path d="M0 0 C0 0.33 0 0.66 0 1 C-2.31 1.33 -4.62 1.66 -7 2 C-5.63875 2.37125 -5.63875 2.37125 -4.25 2.75 C-1 4 -1 4 0.9375 6.0625 C3.76406319 8.71775633 6.21942016 8.70918617 10 9 C9.01 9.33 8.02 9.66 7 10 C7.33 10.99 7.66 11.98 8 13 C3.69235185 11.43358249 -0.06171464 9.31663844 -4 7 C-4 6.34 -4 5.68 -4 5 C-7.67387495 4.14701624 -11.0447393 3.89210529 -14.8125 3.9375 C-15.78832031 3.94652344 -16.76414063 3.95554687 -17.76953125 3.96484375 C-18.50558594 3.97644531 -19.24164063 3.98804688 -20 4 C-18.56546798 1.13093596 -16.38158016 0.58762006 -13.4765625 -0.46875 C-8.95839097 -1.43794768 -4.52381067 -0.69021376 0 0 Z " fill="#0395D3" transform="translate(74,46)"/>
<path d="M0 0 C0.99 0.33 1.98 0.66 3 1 C4.64371491 1.09329934 6.29114677 1.12995144 7.9375 1.125 C8.79214844 1.12757812 9.64679688 1.13015625 10.52734375 1.1328125 C12.93665858 1.08484346 12.93665858 1.08484346 14.95703125 0.49609375 C17.59482563 -0.14444141 20.03956877 -0.09476704 22.75 -0.0625 C23.73484375 -0.05347656 24.7196875 -0.04445313 25.734375 -0.03515625 C26.85585937 -0.01775391 26.85585937 -0.01775391 28 0 C28 0.66 28 1.32 28 2 C15.36924742 4.49057093 2.81664856 4.20534438 -10 4 C-10 3.67 -10 3.34 -10 3 C-6.97265625 2.26757812 -6.97265625 2.26757812 -3.9453125 1.53515625 C-1.9414343 1.05153008 -1.9414343 1.05153008 0 0 Z " fill="#009EDF" transform="translate(64,112)"/>
<path d="M0 0 C0.99 0.33 1.98 0.66 3 1 C2.67 1.66 2.34 2.32 2 3 C0 3.66666667 -2 4.33333333 -4 5 C-4.33 5.66 -4.66 6.32 -5 7 C-7.75078884 7.91692961 -9.35948913 8.10886083 -12.1875 8.0625 C-14.0746875 8.0315625 -14.0746875 8.0315625 -16 8 C-16 8.66 -16 9.32 -16 10 C-13.525 10.99 -13.525 10.99 -11 12 C-11 12.33 -11 12.66 -11 13 C-12.98 13 -14.96 13 -17 13 C-17.33 11.68 -17.66 10.36 -18 9 C-23.94 8.01 -23.94 8.01 -30 7 C-29.67 6.34 -29.34 5.68 -29 5 C-27.88625 5.2475 -27.88625 5.2475 -26.75 5.5 C-17.06180962 6.79175872 -10.66816263 6.64854584 -2.27734375 1.21484375 C-1.52582031 0.81394531 -0.77429688 0.41304688 0 0 Z " fill="#EAE201" transform="translate(83,95)"/>
<path d="M0 0 C3.08364682 0.33039073 3.97847097 0.97657135 6.125 3.3125 C8.89684114 7.2854723 10.26914723 9.84899434 10.125 14.75 C10.10695313 15.54921875 10.08890625 16.3484375 10.0703125 17.171875 C10.03550781 18.07679687 10.03550781 18.07679687 10 19 C9.01 19.33 8.02 19.66 7 20 C7.33 17.36 7.66 14.72 8 12 C7.01 12.33 6.02 12.66 5 13 C5 10.69 5 8.38 5 6 C3.35 6.33 1.7 6.66 0 7 C0 4.69 0 2.38 0 0 Z " fill="#465219" transform="translate(84,48)"/>
<path d="M0 0 C1.65 1.32 3.3 2.64 5 4 C5.33 3.01 5.66 2.02 6 1 C6.66 1 7.32 1 8 1 C10.1875 3.8125 10.1875 3.8125 12 7 C11.67 7.99 11.34 8.98 11 10 C8.4375 11.1875 8.4375 11.1875 6 12 C4.99157547 10.56839732 3.99352109 9.12948547 3 7.6875 C2.1646875 6.48673828 2.1646875 6.48673828 1.3125 5.26171875 C0 3 0 3 0 0 Z " fill="#E4D902" transform="translate(29,81)"/>
<path d="M0 0 C1.65 0 3.3 0 5 0 C3.68 0.33 2.36 0.66 1 1 C1 1.66 1 2.32 1 3 C2.98 3 4.96 3 7 3 C7 3.33 7 3.66 7 4 C5.35 4 3.7 4 2 4 C1.34 7.63 0.68 11.26 0 15 C1.32 15.33 2.64 15.66 4 16 C3.67 17.32 3.34 18.64 3 20 C1.02 19.01 -0.96 18.02 -3 17 C-3.40214229 10.83381819 -1.96818336 5.82254243 0 0 Z " fill="#182E32" transform="translate(3,41)"/>
<path d="M0 0 C1.9375 0.375 1.9375 0.375 4 1 C4.33 1.66 4.66 2.32 5 3 C5.99 3.33 6.98 3.66 8 4 C10.28341107 7.24484731 10.17615457 10.12459955 10 14 C7.625 13.3125 7.625 13.3125 5 12 C3.875 9.625 3.875 9.625 3 7 C2.195625 5.948125 2.195625 5.948125 1.375 4.875 C0 3 0 3 0 0 Z " fill="#DBDCDC" transform="translate(65,67)"/>
<path d="M0 0 C0.66 0 1.32 0 2 0 C2.66 2.64 3.32 5.28 4 8 C1 10 1 10 -2 10 C-2.33 9.01 -2.66 8.02 -3 7 C-3.66 7.66 -4.32 8.32 -5 9 C-5 8.34 -5 7.68 -5 7 C-7.31 7 -9.62 7 -12 7 C-12.33 6.01 -12.66 5.02 -13 4 C-12.01 3.67 -11.02 3.34 -10 3 C-9.67 3.66 -9.34 4.32 -9 5 C-8.67 4.34 -8.34 3.68 -8 3 C-5.03 3.33 -2.06 3.66 1 4 C0.67 2.68 0.34 1.36 0 0 Z " fill="#333C1A" transform="translate(86,84)"/>
<path d="M0 0 C0.66163651 0.00424484 1.32327301 0.00848969 2.00495911 0.01286316 C4.11440035 0.02963182 6.22287971 0.06727776 8.33203125 0.10546875 C9.76365806 0.12051807 11.19529987 0.13420605 12.62695312 0.14648438 C16.13312413 0.17952845 19.63873379 0.23129708 23.14453125 0.29296875 C19.15225151 3.35371655 17.38388438 4.47844421 12.33203125 3.91796875 C11.43097656 3.81871094 10.52992187 3.71945313 9.6015625 3.6171875 C7.14453125 3.29296875 7.14453125 3.29296875 4.51953125 2.73046875 C-0.21782696 1.8577975 -5.24623441 1.7565573 -9.85546875 3.29296875 C-7.14573714 -0.45398071 -4.39428046 -0.0556238 0 0 Z " fill="#153832" transform="translate(42.85546875,110.70703125)"/>
<path d="M0 0 C-0.3125 1.875 -0.3125 1.875 -1 4 C-4 6 -4 6 -6.1875 5.625 C-6.785625 5.41875 -7.38375 5.2125 -8 5 C-8 5.66 -8 6.32 -8 7 C-10.64 7.33 -13.28 7.66 -16 8 C-15.67 7.01 -15.34 6.02 -15 5 C-12.08961104 3.5841351 -9.153498 2.70077733 -6 2 C-6 1.34 -6 0.68 -6 0 C-2.25 -1.125 -2.25 -1.125 0 0 Z " fill="#97900B" transform="translate(91,96)"/>
<path d="M0 0 C0.66 0.33 1.32 0.66 2 1 C2.125 3.375 2.125 3.375 2 6 C1.34 6.66 0.68 7.32 0 8 C0.26103516 8.90492187 0.26103516 8.90492187 0.52734375 9.828125 C1.18991004 12.87264449 0.14340492 14.12801135 -1.4375 16.75 C-1.91058594 17.54921875 -2.38367188 18.3484375 -2.87109375 19.171875 C-3.24363281 19.77515625 -3.61617188 20.3784375 -4 21 C-5.22578535 17.32264395 -4.46596728 16.44933477 -3 13 C-3 12.01 -3 11.02 -3 10 C-3.66 9.34 -4.32 8.68 -5 8 C-4.34 7.34 -3.68 6.68 -3 6 C-2.31246699 4.34183216 -1.64438717 2.67540664 -1 1 C-0.67 0.67 -0.34 0.34 0 0 Z " fill="#232419" transform="translate(93,68)"/>
<path d="M0 0 C6.19375416 2.18603088 11.48792191 5.32664309 15 11 C15.25 14.3125 15.25 14.3125 15 17 C14.34 17.33 13.68 17.66 13 18 C13 16.02 13 14.04 13 12 C12.34 11.67 11.68 11.34 11 11 C11 10.01 11 9.02 11 8 C10.360625 7.87625 9.72125 7.7525 9.0625 7.625 C8.381875 7.41875 7.70125 7.2125 7 7 C6.67 6.34 6.34 5.68 6 5 C5.01 4.67 4.02 4.34 3 4 C3 5.32 3 6.64 3 8 C2.34 7.67 1.68 7.34 1 7 C1.020625 6.21625 1.04125 5.4325 1.0625 4.625 C1.18684063 2.01885039 1.18684063 2.01885039 0 0 Z " fill="#29333C" transform="translate(62,63)"/>
<path d="M0 0 C0.05389087 1.95803507 0.09274217 3.91648909 0.125 5.875 C0.14820312 6.96554688 0.17140625 8.05609375 0.1953125 9.1796875 C0 12 0 12 -2 14 C-2 15.32 -2 16.64 -2 18 C-2.99 18.33 -3.98 18.66 -5 19 C-5 15.37 -5 11.74 -5 8 C-4.34 8 -3.68 8 -3 8 C-3.33 5.69 -3.66 3.38 -4 1 C-1 0 -1 0 0 0 Z " fill="#155F5E" transform="translate(91,62)"/>
<path d="M0 0 C0.99 0 1.98 0 3 0 C3.16435547 1.22976562 3.16435547 1.22976562 3.33203125 2.484375 C3.49058594 3.56203125 3.64914063 4.6396875 3.8125 5.75 C3.96332031 6.81734375 4.11414063 7.8846875 4.26953125 8.984375 C5.0227733 12.09401596 6.04798038 13.53992048 8 16 C8 16.99 8 17.98 8 19 C7.34 19 6.68 19 6 19 C5.67 19.66 5.34 20.32 5 21 C-0.74031891 7.55125285 -0.74031891 7.55125285 0 0 Z " fill="#0392CD" transform="translate(12,66)"/>
<path d="M0 0 C2.86724686 0.57344937 3.8614515 0.8614515 6 3 C6.4140625 5.3828125 6.4140625 5.3828125 6.625 8.125 C6.69976562 9.03507812 6.77453125 9.94515625 6.8515625 10.8828125 C6.90054688 11.58148438 6.94953125 12.28015625 7 13 C4.125 13.1875 4.125 13.1875 1 13 C0.34 12.01 -0.32 11.02 -1 10 C0.65 9.67 2.3 9.34 4 9 C3.24849977 5.72226496 3.24849977 5.72226496 0 4 C0 2.68 0 1.36 0 0 Z " fill="#747310" transform="translate(76,41)"/>
<path d="M0 0 C0.99 0.33 1.98 0.66 3 1 C3 2.32 3 3.64 3 5 C4.65 5 6.3 5 8 5 C8.66 6.32 9.32 7.64 10 9 C5.70700357 10.26264601 3.12168689 9.62950412 -1 8 C-0.67 5.36 -0.34 2.72 0 0 Z " fill="#11729C" transform="translate(58,65)"/>
<path d="M0 0 C0.66 0.33 1.32 0.66 2 1 C2 2.32 2 3.64 2 5 C3.92022703 6.77409808 3.92022703 6.77409808 6 8 C5.67 8.99 5.34 9.98 5 11 C2.9375 11.6875 2.9375 11.6875 1 12 C1.33 12.66 1.66 13.32 2 14 C0.68 13.34 -0.64 12.68 -2 12 C-2 11.34 -2 10.68 -2 10 C-3.175625 10.0928125 -3.175625 10.0928125 -4.375 10.1875 C-5.674375 10.0946875 -5.674375 10.0946875 -7 10 C-7.66 9.01 -8.32 8.02 -9 7 C-8.01 7.33 -7.02 7.66 -6 8 C-4.60560336 8.06665376 -3.20830125 8.08538199 -1.8125 8.0625 C-0.554375 8.041875 0.70375 8.02125 2 8 C1.34 7.34 0.68 6.68 0 6 C-0.6875 3.4375 -0.6875 3.4375 -1 1 C-0.67 0.67 -0.34 0.34 0 0 Z " fill="#134B4A" transform="translate(75,40)"/>
<path d="M0 0 C4.29 0 8.58 0 13 0 C13 0.33 13 0.66 13 1 C9.04 1 5.08 1 1 1 C1 1.66 1 2.32 1 3 C1.66 3 2.32 3 3 3 C1.79157144 7.43090471 0.48331435 9.98112756 -3 13 C-3.99 12.67 -4.98 12.34 -6 12 C-5.38125 11.319375 -4.7625 10.63875 -4.125 9.9375 C-1.6680932 6.54118766 -0.95054395 4.03981179 0 0 Z " fill="#0683B6" transform="translate(58,8)"/>
<path d="M0 0 C3.12290635 0.48578543 5.99580359 0.9986012 9 2 C9.144375 2.61875 9.28875 3.2375 9.4375 3.875 C10.1872454 6.7073715 11.59730651 7.44987517 14 9 C11.35261084 10.4606285 10.10551666 11 7 11 C6.375 8.6875 6.375 8.6875 6 6 C6.66 5.01 7.32 4.02 8 3 C5.36 3 2.72 3 0 3 C0 2.01 0 1.02 0 0 Z " fill="#5E686F" transform="translate(61,73)"/>
<path d="M0 0 C-4.4373741 4.84719528 -10.87074213 7.82510204 -17 10 C-14.63094073 4.28995971 -9.47767391 2.18497448 -4.125 -0.375 C-2 -1 -2 -1 0 0 Z " fill="#0392CD" transform="translate(53,20)"/>
<path d="M0 0 C3.63845273 2.61121715 6.5111666 5.26674989 9 9 C8.67 9.99 8.34 10.98 8 12 C7.62488281 11.52949219 7.24976562 11.05898438 6.86328125 10.57421875 C3.86411748 6.92536207 1.29106484 4.14553242 -3 2 C-3.763125 1.608125 -4.52625 1.21625 -5.3125 0.8125 C-5.869375 0.544375 -6.42625 0.27625 -7 0 C-4.14256951 -1.42871525 -3.0411049 -1.01370163 0 0 Z " fill="#0294D0" transform="translate(99,31)"/>
<path d="M0 0 C0 0.99 0 1.98 0 3 C-1.59915881 3.69906942 -3.20455045 4.38389468 -4.8125 5.0625 C-5.70582031 5.44535156 -6.59914063 5.82820313 -7.51953125 6.22265625 C-10 7 -10 7 -13 6 C-12.01 5.34 -11.02 4.68 -10 4 C-9.67 3.67 -9.34 3.34 -9 3 C-9.66 2.67 -10.32 2.34 -11 2 C-7.36576791 -0.32590854 -4.22911669 -0.16265833 0 0 Z " fill="#C6C007" transform="translate(62,42)"/>
<path d="M0 0 C3.4162289 2.45267716 4.77528642 3.78306518 5.5546875 8.00390625 C5.78867998 11.00680971 5.94717072 13.98873113 6 17 C5.34 17 4.68 17 4 17 C4 15.35 4 13.7 4 12 C3.34 12 2.68 12 2 12 C0.86235649 7.73383684 0 4.43513689 0 0 Z " fill="#19272B" transform="translate(7,58)"/>
<path d="M0 0 C1.9375 0.375 1.9375 0.375 4 1 C4.33 1.66 4.66 2.32 5 3 C8.02934491 3.65772428 8.02934491 3.65772428 11 4 C11 5.32 11 6.64 11 8 C10.01 8 9.02 8 8 8 C8 7.34 8 6.68 8 6 C7.01 6.33 6.02 6.66 5 7 C2.3125 5.8125 2.3125 5.8125 0 4 C0 2.68 0 1.36 0 0 Z " fill="#726D0F" transform="translate(45,98)"/>
<path d="M0 0 C0.66 0.33 1.32 0.66 2 1 C2 2.33333333 2 3.66666667 2 5 C4.97 5.495 4.97 5.495 8 6 C7.67 6.99 7.34 7.98 7 9 C4.69 9 2.38 9 0 9 C-1.76462683 5.91190305 -2 4.76687864 -2 1 C-1.34 0.67 -0.68 0.34 0 0 Z " fill="#70771B" transform="translate(73,85)"/>
<path d="M0 0 C0.99 0 1.98 0 3 0 C3.29341888 5.67276511 3.00559652 8.99067246 0 14 C-1.32 13.34 -2.64 12.68 -4 12 C-3.525625 11.319375 -3.05125 10.63875 -2.5625 9.9375 C-0.7774364 6.58158044 -0.36846914 3.75838519 0 0 Z " fill="#153943" transform="translate(116,70)"/>
<path d="M0 0 C0.99 0.33 1.98 0.66 3 1 C3 3.64 3 6.28 3 9 C4.32 8.34 5.64 7.68 7 7 C6.34 8.65 5.68 10.3 5 12 C3.68 12 2.36 12 1 12 C0.67 8.04 0.34 4.08 0 0 Z " fill="#7F8012" transform="translate(84,71)"/>
<path d="M0 0 C0.66 0.66 1.32 1.32 2 2 C1.01 3.485 1.01 3.485 0 5 C0 6.32 0 7.64 0 9 C0.66 9 1.32 9 2 9 C2 11.31 2 13.62 2 16 C1.34 16 0.68 16 0 16 C-2.15384835 12.4676887 -3.02538344 10.49920756 -2.8125 6.3125 C-2 3 -2 3 0 0 Z " fill="#223A47" transform="translate(52,51)"/>
<path d="M0 0 C0.99 0.33 1.98 0.66 3 1 C3 1.99 3 2.98 3 4 C2.34 4 1.68 4 1 4 C1 5.65 1 7.3 1 9 C-0.65 7.68 -2.3 6.36 -4 5 C-4.66 5.66 -5.32 6.32 -6 7 C-6.33 5.02 -6.66 3.04 -7 1 C-4.53199953 2.15173355 -2.95216435 3.04783565 -1 5 C-0.67 3.35 -0.34 1.7 0 0 Z " fill="#25291A" transform="translate(34,77)"/>
<path d="M0 0 C1.98 0 3.96 0 6 0 C6.33 1.98 6.66 3.96 7 6 C6.34 6 5.68 6 5 6 C4.67 6.66 4.34 7.32 4 8 C4 6.35 4 4.7 4 3 C3.01 3.33 2.02 3.66 1 4 C-1.33299825 4.03954234 -3.66708189 4.04401732 -6 4 C-6 3.67 -6 3.34 -6 3 C-4.02 2.67 -2.04 2.34 0 2 C0 1.34 0 0.68 0 0 Z " fill="#163741" transform="translate(120,41)"/>
<path d="M0 0 C0 0.66 0 1.32 0 2 C2.31 2 4.62 2 7 2 C7 2.33 7 2.66 7 3 C-0.77449624 3.31732638 -8.32992235 2.11855299 -16 1 C-16 0.67 -16 0.34 -16 0 C-10.42289352 -1.06795656 -5.60563042 -0.82622671 0 0 Z " fill="#0589C1" transform="translate(54,114)"/>
<path d="M0 0 C0.99 0.495 0.99 0.495 2 1 C2 2.32 2 3.64 2 5 C2.99 5 3.98 5 5 5 C5 7.64 5 10.28 5 13 C4.01 13.33 3.02 13.66 2 14 C2.33 11.36 2.66 8.72 3 6 C2.01 6.33 1.02 6.66 0 7 C0 4.69 0 2.38 0 0 Z " fill="#82800E" transform="translate(89,54)"/>
<path d="M0 0 C3.96 0 7.92 0 12 0 C12.33 1.65 12.66 3.3 13 5 C12.01 5 11.02 5 10 5 C10 4.01 10 3.02 10 2 C6.7 2 3.4 2 0 2 C0 1.34 0 0.68 0 0 Z " fill="#00A0E4" transform="translate(59,9)"/>
<path d="M0 0 C2.94982021 1.14186589 4.88437775 2.67281553 7 5 C5.35 5.33 3.7 5.66 2 6 C2 5.01 2 4.02 2 3 C1.34 2.67 0.68 2.34 0 2 C-0.33 3.32 -0.66 4.64 -1 6 C-1.99 5.67 -2.98 5.34 -4 5 C-2.25 1.125 -2.25 1.125 0 0 Z " fill="#E2DA02" transform="translate(39,92)"/>
<path d="M0 0 C0.66 0.33 1.32 0.66 2 1 C2 4.3 2 7.6 2 11 C1.01 11 0.02 11 -1 11 C-1.0270043 9.54176788 -1.04639787 8.08339325 -1.0625 6.625 C-1.07410156 5.81289062 -1.08570313 5.00078125 -1.09765625 4.1640625 C-1 2 -1 2 0 0 Z " fill="#9E9711" transform="translate(37,61)"/>
<path d="M0 0 C2.49361571 1.20381448 4.68143083 2.45428722 7 4 C7.1875 7.625 7.1875 7.625 7 11 C6.34 11 5.68 11 5 11 C4.54625 9.9275 4.0925 8.855 3.625 7.75 C2.49911463 5.11937683 1.32079794 2.53999604 0 0 Z " fill="#2B3F4B" transform="translate(66,55)"/>
<path d="M0 0 C0.66 1.32 1.32 2.64 2 4 C1.01 4.66 0.02 5.32 -1 6 C-1.33 5.34 -1.66 4.68 -2 4 C-2.99 4.495 -2.99 4.495 -4 5 C-5.32 4.01 -6.64 3.02 -8 2 C-4.91190305 0.23537317 -3.76687864 0 0 0 Z " fill="#D1C904" transform="translate(92,92)"/>
<path d="M0 0 C2.5 2.3125 2.5 2.3125 5 5 C5 5.99 5 6.98 5 8 C5.99 8.33 6.98 8.66 8 9 C7.67 9.99 7.34 10.98 7 12 C7 11.34 7 10.68 7 10 C6.0409375 9.8453125 6.0409375 9.8453125 5.0625 9.6875 C4.381875 9.460625 3.70125 9.23375 3 9 C2.67 8.01 2.34 7.02 2 6 C1.34 6 0.68 6 0 6 C0 4.02 0 2.04 0 0 Z " fill="#494E1E" transform="translate(40,78)"/>
<path d="M0 0 C0.66 0 1.32 0 2 0 C2 2.97 2 5.94 2 9 C1.34 9 0.68 9 0 9 C-0.33 10.32 -0.66 11.64 -1 13 C-1.02696365 11.20841511 -1.04637917 9.41671527 -1.0625 7.625 C-1.07410156 6.62726563 -1.08570312 5.62953125 -1.09765625 4.6015625 C-1 2 -1 2 0 0 Z " fill="#19292D" transform="translate(118,61)"/>
<path d="M0 0 C0.33 0 0.66 0 1 0 C1 1.98 1 3.96 1 6 C1.66 6.33 2.32 6.66 3 7 C-1.75 12.875 -1.75 12.875 -4 14 C-3.45276317 10.62537285 -2.9451 8.91765 -1 6 C-0.60986284 4.0103005 -0.26797351 2.00980131 0 0 Z " fill="#134247" transform="translate(21,100)"/>
<path d="M0 0 C0.66 0 1.32 0 2 0 C2.33 0.99 2.66 1.98 3 3 C2.34 3 1.68 3 1 3 C1 3.66 1 4.32 1 5 C-1.64 5.33 -4.28 5.66 -7 6 C-6.67 5.01 -6.34 4.02 -6 3 C-3.5 1.875 -3.5 1.875 -1 1 C-0.67 0.67 -0.34 0.34 0 0 Z " fill="#666211" transform="translate(82,98)"/>
<path d="M0 0 C3.875 1.75 3.875 1.75 5 4 C5.04022391 6.3329866 5.04320247 8.66706666 5 11 C4.34 11 3.68 11 3 11 C3 9.02 3 7.04 3 5 C2.34 5 1.68 5 1 5 C0.67 3.35 0.34 1.7 0 0 Z " fill="#1A2328" transform="translate(19,95)"/>
<path d="M0 0 C0.66 0 1.32 0 2 0 C2.33 0.66 2.66 1.32 3 2 C3.33 1.34 3.66 0.68 4 0 C7 1 7 1 9 2 C8.34 3.32 7.68 4.64 7 6 C7 5.34 7 4.68 7 4 C4.69 4 2.38 4 0 4 C-0.33 3.01 -0.66 2.02 -1 1 C-0.67 0.67 -0.34 0.34 0 0 Z " fill="#222119" transform="translate(74,87)"/>
<path d="M0 0 C2.97 0 5.94 0 9 0 C9 1.32 9 2.64 9 4 C5.72724974 4 3.153368 3.70074844 0 3 C0 2.01 0 1.02 0 0 Z " fill="#615C11" transform="translate(57,103)"/>
<path d="M0 0 C-0.33 2.97 -0.66 5.94 -1 9 C-2.32 9.33 -3.64 9.66 -5 10 C-4.71872579 8.51882199 -4.42466268 7.04006751 -4.125 5.5625 C-3.96257812 4.73878906 -3.80015625 3.91507812 -3.6328125 3.06640625 C-3.42398438 2.38449219 -3.21515625 1.70257813 -3 1 C-1 0 -1 0 0 0 Z " fill="#182A30" transform="translate(115,82)"/>
<path d="M0 0 C1.65 0 3.3 0 5 0 C3.68 0.33 2.36 0.66 1 1 C1 1.66 1 2.32 1 3 C2.98 3 4.96 3 7 3 C7 3.33 7 3.66 7 4 C5.35 4 3.7 4 2 4 C2 4.99 2 5.98 2 7 C0.68 7.99 -0.64 8.98 -2 10 C-1.34 6.7 -0.68 3.4 0 0 Z " fill="#143E45" transform="translate(3,41)"/>
<path d="M0 0 C0.99 0 1.98 0 3 0 C3.33 3.3 3.66 6.6 4 10 C3.01 10.33 2.02 10.66 1 11 C-0.28317892 7.15046324 -0.06643637 4.05261865 0 0 Z " fill="#0684B9" transform="translate(12,66)"/>
<path d="M0 0 C-0.33 1.98 -0.66 3.96 -1 6 C-1.99 6 -2.98 6 -4 6 C-4 5.34 -4 4.68 -4 4 C-5.32 4 -6.64 4 -8 4 C-8 3.34 -8 2.68 -8 2 C-2.25 0 -2.25 0 0 0 Z " fill="#1C3D35" transform="translate(89,54)"/>
<path d="M0 0 C3.63 0 7.26 0 11 0 C11 0.66 11 1.32 11 2 C8.03 2 5.06 2 2 2 C2 2.66 2 3.32 2 4 C1.34 4 0.68 4 0 4 C0 2.68 0 1.36 0 0 Z " fill="#019CDF" transform="translate(5,45)"/>
<path d="M0 0 C0.66 0.33 1.32 0.66 2 1 C1.75 2.875 1.75 2.875 1 5 C-0.875 6.3125 -0.875 6.3125 -3 7 C-3.99 6.67 -4.98 6.34 -6 6 C-4 4 -2 2 0 0 Z " fill="#172E34" transform="translate(54,13)"/>
<path d="M0 0 C0.33 0 0.66 0 1 0 C1 2.31 1 4.62 1 7 C1.66 7 2.32 7 3 7 C3 8.32 3 9.64 3 11 C2.01 10.67 1.02 10.34 0 10 C-1.49106457 7.01787087 -1.11941467 4.28390342 -1 1 C-0.67 0.67 -0.34 0.34 0 0 Z " fill="#1A2126" transform="translate(106,99)"/>
<path d="M0 0 C0.33 0.99 0.66 1.98 1 3 C3.00016466 4.20882096 3.00016466 4.20882096 5 5 C5 5.66 5 6.32 5 7 C2.625 6.75 2.625 6.75 0 6 C-1.3125 3.9375 -1.3125 3.9375 -2 2 C-1.34 1.34 -0.68 0.68 0 0 Z " fill="#182B30" transform="translate(20,110)"/>
<path d="M0 0 C1.875 0.1875 1.875 0.1875 4 1 C5.25 3.5625 5.25 3.5625 6 6 C5.34 6 4.68 6 4 6 C3.67 5.67 3.34 5.34 3 5 C2.67 5.66 2.34 6.32 2 7 C0 4 0 4 0 0 Z " fill="#C5BE08" transform="translate(38,75)"/>
<path d="M0 0 C0.66 0.33 1.32 0.66 2 1 C2 2.65 2 4.3 2 6 C-0.64738916 7.4606285 -1.89448334 8 -5 8 C-4.34 7.34 -3.68 6.68 -3 6 C-2.31246699 4.34183216 -1.64438717 2.67540664 -1 1 C-0.67 0.67 -0.34 0.34 0 0 Z " fill="#787A11" transform="translate(93,68)"/>
<path d="M0 0 C0.33 0.66 0.66 1.32 1 2 C0.67 2.66 0.34 3.32 0 4 C-2.31847874 4.7166207 -4.65319703 5.38242027 -7 6 C-7.99 6.495 -7.99 6.495 -9 7 C-8.75390625 5.109375 -8.75390625 5.109375 -8 3 C-6.15234375 1.953125 -6.15234375 1.953125 -3.9375 1.25 C-2.83728516 0.88648437 -2.83728516 0.88648437 -1.71484375 0.515625 C-1.14894531 0.34546875 -0.58304688 0.1753125 0 0 Z " fill="#019ADB" transform="translate(38,28)"/>
<path d="M0 0 C0.33 0.99 0.66 1.98 1 3 C-1.25 5.5625 -1.25 5.5625 -4 8 C-6.3125 7.8125 -6.3125 7.8125 -8 7 C-5.78972846 3.62642766 -3.53600465 1.91135386 0 0 Z " fill="#1A2329" transform="translate(40,22)"/>
<path d="M0 0 C2.97 0.99 5.94 1.98 9 3 C9 3.66 9 4.32 9 5 C7.3125 5.8125 7.3125 5.8125 5 6 C2.25 3.625 2.25 3.625 0 1 C0 0.67 0 0.34 0 0 Z " fill="#6B671C" transform="translate(49,88)"/>
<path d="M0 0 C1.5 1.375 1.5 1.375 3 3 C3 3.66 3 4.32 3 5 C0.03 5 -2.94 5 -6 5 C-6 4.34 -6 3.68 -6 3 C-5.195625 2.87625 -4.39125 2.7525 -3.5625 2.625 C-2.716875 2.41875 -1.87125 2.2125 -1 2 C-0.67 1.34 -0.34 0.68 0 0 Z " fill="#191C1E" transform="translate(70,88)"/>
<path d="M0 0 C2 1 2 1 3 3 C0.03 5.475 0.03 5.475 -3 8 C-3.33 6.35 -3.66 4.7 -4 3 C-2.68 2.01 -1.36 1.02 0 0 Z " fill="#153940" transform="translate(123,56)"/>
<path d="M0 0 C0.99 0.33 1.98 0.66 3 1 C2.01 1.495 2.01 1.495 1 2 C1.185625 2.969375 1.37125 3.93875 1.5625 4.9375 C1.706875 5.948125 1.85125 6.95875 2 8 C1 9 1 9 -2.5625 9.0625 C-3.696875 9.041875 -4.83125 9.02125 -6 9 C-6 8.67 -6 8.34 -6 8 C-4.02 8 -2.04 8 0 8 C-0.185625 7.4225 -0.37125 6.845 -0.5625 6.25 C-1.04023546 3.79307475 -0.75729364 2.35602466 0 0 Z " fill="#135342" transform="translate(83,46)"/>
<path d="M0 0 C2.97 0.495 2.97 0.495 6 1 C2.35883227 4.33773709 -1.28607242 4.97864902 -6 6 C-4.625 4.5 -4.625 4.5 -3 3 C-2.34 3 -1.68 3 -1 3 C-0.67 2.01 -0.34 1.02 0 0 Z " fill="#51531C" transform="translate(50,43)"/>
<path d="M0 0 C0.99 0.33 1.98 0.66 3 1 C2.67 1.99 2.34 2.98 2 4 C2.99 3.67 3.98 3.34 5 3 C5 3.99 5 4.98 5 6 C3.02 6 1.04 6 -1 6 C-1.33 5.34 -1.66 4.68 -2 4 C-1.0625 1.875 -1.0625 1.875 0 0 Z " fill="#86810D" transform="translate(39,94)"/>
<path d="M0 0 C1.65 0.33 3.3 0.66 5 1 C4.67 2.65 4.34 4.3 4 6 C2.02 6 0.04 6 -2 6 C-0.68 5.67 0.64 5.34 2 5 C2 3.68 2 2.36 2 1 C1.34 0.67 0.68 0.34 0 0 Z " fill="#203223" transform="translate(58,89)"/>
<path d="M0 0 C0.886875 0.309375 1.77375 0.61875 2.6875 0.9375 C5.46709155 1.8290671 8.13136375 2.49377007 11 3 C11 3.66 11 4.32 11 5 C4.6 4.50769231 4.6 4.50769231 1.5625 1.9375 C1.046875 1.298125 0.53125 0.65875 0 0 Z " fill="#E7DF02" transform="translate(42,101)"/>
<path d="M0 0 C0.33 0 0.66 0 1 0 C1.33 1.65 1.66 3.3 2 5 C3.32 4.67 4.64 4.34 6 4 C6 4.66 6 5.32 6 6 C4.02 6.99 2.04 7.98 0 9 C0 6.03 0 3.06 0 0 Z " fill="#393B17" transform="translate(94,77)"/>
<path d="M0 0 C0.99 0.33 1.98 0.66 3 1 C3 2.32 3 3.64 3 5 C2.34 5.66 1.68 6.32 1 7 C1.33 7.66 1.66 8.32 2 9 C1.01 8.67 0.02 8.34 -1 8 C-0.67 5.36 -0.34 2.72 0 0 Z " fill="#849AA5" transform="translate(58,65)"/>
<path d="M0 0 C1.98 0 3.96 0 6 0 C5.67 1.32 5.34 2.64 5 4 C3.0625 3.6875 3.0625 3.6875 1 3 C0.67 2.01 0.34 1.02 0 0 Z " fill="#7E790E" transform="translate(67,103)"/>
<path d="M0 0 C1.32 0 2.64 0 4 0 C4 1.65 4 3.3 4 5 C1.525 4.01 1.525 4.01 -1 3 C-0.67 2.01 -0.34 1.02 0 0 Z " fill="#F2F2F3" transform="translate(71,76)"/>
<path d="M0 0 C2.97 0.495 2.97 0.495 6 1 C6.33 2.32 6.66 3.64 7 5 C4.69 4.01 2.38 3.02 0 2 C0 1.34 0 0.68 0 0 Z " fill="#535F16" transform="translate(67,39)"/>
<path d="M0 0 C0.66 0 1.32 0 2 0 C0.7251791 2.84383123 -0.45137078 5.13754018 -3 7 C-5.1875 6.6875 -5.1875 6.6875 -7 6 C-6.01 6 -5.02 6 -4 6 C-3.71125 5.38125 -3.4225 4.7625 -3.125 4.125 C-2 2 -2 2 0 0 Z " fill="#0F5333" transform="translate(42,26)"/>
<path d="M0 0 C0.66 0.33 1.32 0.66 2 1 C2 1.99 2 2.98 2 4 C-1 6 -1 6 -3.1875 5.625 C-3.785625 5.41875 -4.38375 5.2125 -5 5 C-3.35 3.35 -1.7 1.7 0 0 Z " fill="#144146" transform="translate(100,117)"/>
<path d="M0 0 C2.97 0.495 2.97 0.495 6 1 C5.67 1.99 5.34 2.98 5 4 C2.36 3.67 -0.28 3.34 -3 3 C-2.01 2.67 -1.02 2.34 0 2 C0 1.34 0 0.68 0 0 Z " fill="#143D46" transform="translate(47,115)"/>
<path d="M0 0 C2.475 0.99 2.475 0.99 5 2 C4.67 2.99 4.34 3.98 4 5 C2.35 4.67 0.7 4.34 -1 4 C-0.67 2.68 -0.34 1.36 0 0 Z " fill="#1C2830" transform="translate(54,80)"/>
<path d="M0 0 C0.33 0 0.66 0 1 0 C1 3.96 1 7.92 1 12 C-0.32 12.33 -1.64 12.66 -3 13 C-3 12.34 -3 11.68 -3 11 C-2.34 10.67 -1.68 10.34 -1 10 C-0.53248212 7.64400765 -0.53248212 7.64400765 -0.375 4.9375 C-0.30023438 4.01839844 -0.22546875 3.09929687 -0.1484375 2.15234375 C-0.09945312 1.44207031 -0.05046875 0.73179688 0 0 Z " fill="#BAB306" transform="translate(40,61)"/>
<path d="M0 0 C2.62187494 1.04874998 3.79371361 1.64931313 5.25 4.125 C5.4975 4.74375 5.745 5.3625 6 6 C5.01 5.34 4.02 4.68 3 4 C2.34 4.66 1.68 5.32 1 6 C0.67 4.02 0.34 2.04 0 0 Z " fill="#1A221C" transform="translate(27,78)"/>
<path d="M0 0 C0.99 0 1.98 0 3 0 C3.33 2.31 3.66 4.62 4 7 C3.01 7 2.02 7 1 7 C0.67 4.69 0.34 2.38 0 0 Z " fill="#048EC5" transform="translate(23,97)"/>
<path d="M0 0 C1.2380014 3.57644848 0.74926071 6.33694766 0 10 C-0.33 10 -0.66 10 -1 10 C-1.54372951 6.94152152 -2 4.11227195 -2 1 C-1.34 0.67 -0.68 0.34 0 0 Z " fill="#143D43" transform="translate(108,96)"/>
<path d="M0 0 C0.66 0 1.32 0 2 0 C1.38461538 5.53846154 1.38461538 5.53846154 -0.5625 7.875 C-1.036875 8.24625 -1.51125 8.6175 -2 9 C-1.34 7.02 -0.68 5.04 0 3 C-0.66 2.67 -1.32 2.34 -2 2 C-1.34 1.34 -0.68 0.68 0 0 Z " fill="#1D211B" transform="translate(100,78)"/>
<path d="M0 0 C0.66 0 1.32 0 2 0 C2 2.31 2 4.62 2 7 C1.34 7 0.68 7 0 7 C-1.125 2.25 -1.125 2.25 0 0 Z " fill="#2B3338" transform="translate(52,60)"/>
</svg>
